<svg width="236" height="61" viewBox="0 0 236 61" fill="none" xmlns="http://www.w3.org/2000/svg">
<path d="M34.2559 32.4273L23.0631 28.564L21.1695 36.5234L25.157 37.2526C25.1878 37.113 25.2955 37.1285 25.4033 37.1595C25.4033 37.1906 25.4033 37.2216 25.4033 37.2371C25.3263 37.2371 25.2493 37.2371 25.1878 37.2526L28.5594 37.8732L29.3446 41.7986C29.3446 41.7986 29.3754 41.69 29.437 41.6745C29.5756 41.6435 29.5756 41.7831 29.6063 41.8762C29.6063 41.9228 29.6063 41.9538 29.6063 42.0003H29.5448H29.4832C29.4832 42.0003 29.4216 41.9383 29.3908 41.9072L29.8989 44.4208L29.3908 44.5604C29.3908 44.5604 29.4524 44.5604 29.4832 44.5604C29.4832 44.6069 29.4832 44.638 29.4832 44.6845C29.4062 44.6845 29.3138 44.6845 29.2368 44.6845C29.2368 44.6535 29.2368 44.638 29.2368 44.6069L16.3198 48.2841C16.3198 48.2841 16.4275 48.2841 16.4737 48.2841C16.4737 48.3306 16.4737 48.3772 16.4737 48.4082C16.3814 48.4082 16.289 48.4082 16.2428 48.2996L14.1028 48.9047L19.4913 55.747C19.4913 55.747 19.4913 55.6384 19.4913 55.5763C19.5375 55.6229 19.5837 55.6539 19.6299 55.7005C19.6299 55.747 19.6299 55.778 19.6299 55.8246C19.6145 55.8246 19.5837 55.8246 19.5683 55.8246L20.061 56.4607C20.061 56.4607 20.1071 56.4607 20.1225 56.4607C20.1225 56.4607 20.1225 56.5228 20.1225 56.5538L22.9092 60.0913L38.7668 45.8792L34.2713 32.3963L34.2559 32.4273ZM22.7398 33.6686C22.7398 33.6686 22.6628 33.6686 22.6167 33.6686C22.6167 33.591 22.6628 33.5599 22.7398 33.5444C22.7398 33.591 22.7398 33.622 22.7398 33.6686ZM22.9862 31.4809C22.863 31.3878 22.8322 31.3102 22.9862 31.2326C22.9862 31.3102 22.9862 31.4033 22.9862 31.4809ZM25.2801 29.9448H25.3417H25.4033C25.4033 30.0224 25.3725 30.1 25.3571 30.1776H25.3263H25.2955C25.2955 30.1 25.2955 30.0224 25.2955 29.9448H25.2801ZM23.7559 36.0734C23.7559 36.0734 23.679 36.0734 23.6328 36.089C23.6328 36.089 23.6328 36.0114 23.6482 35.9648C23.6636 35.9028 23.7098 35.8717 23.7867 35.8873C23.8021 35.8873 23.8175 35.9183 23.8329 35.9338C23.8329 35.9959 23.8175 36.0424 23.7559 36.0734ZM23.8791 31.2171C23.7713 31.1706 23.7559 31.0775 23.7559 30.9689C23.8021 30.9689 23.8329 30.9689 23.8791 30.9689C23.8791 31.0464 23.8791 31.1395 23.8791 31.2171ZM24.3256 33.3738C24.3256 33.3738 24.2948 33.3117 24.264 33.2807C24.3102 33.2807 24.341 33.2807 24.3872 33.2807C24.3718 33.3117 24.341 33.3427 24.3256 33.3738ZM24.8952 37.144C24.8952 37.144 24.8183 37.1285 24.7721 37.1285C24.7721 37.0509 24.7721 36.9578 24.7721 36.8802C24.8183 36.8802 24.8644 36.8802 24.9106 36.8802C24.9568 36.9268 24.9876 36.9733 25.0338 37.0199C24.9876 37.0664 24.9568 37.113 24.9106 37.1595L24.8952 37.144ZM25.5265 34.4288C25.5265 34.4288 25.4495 34.5219 25.4033 34.5684C25.2955 34.5684 25.2031 34.5374 25.1416 34.4288C25.1416 34.3823 25.1416 34.3512 25.1416 34.3047C25.2801 34.2892 25.3879 34.3823 25.5111 34.4288H25.5265ZM25.896 36.089C25.896 36.089 25.8344 36.0424 25.8036 36.0269C25.8344 36.0114 25.8652 35.9959 25.896 35.9804C25.896 36.0114 25.896 36.0579 25.896 36.089ZM27.0352 35.9648C26.9583 35.9648 26.8659 35.9648 26.7889 35.9648C26.8197 35.7942 26.9275 35.8407 27.0352 35.8562C27.0352 35.8873 27.0352 35.9183 27.0352 35.9648ZM27.4201 33.6996C27.4201 33.6996 27.3586 33.653 27.3278 33.653C27.3278 33.5755 27.3278 33.4979 27.3124 33.4203C27.4047 33.4203 27.5279 33.3738 27.5587 33.5289C27.5895 33.6375 27.5125 33.6686 27.4201 33.6996ZM28.698 32.2411C28.698 32.1636 28.698 32.086 28.698 31.9929C28.8673 32.0705 28.8673 32.148 28.698 32.2411ZM28.8212 37.113C28.7442 37.113 28.6518 37.113 28.5748 37.0975C28.5748 37.0664 28.5748 37.0354 28.5748 36.9889C28.6518 36.9889 28.7442 36.9889 28.8212 36.9889C28.8212 37.0354 28.8212 37.0819 28.8212 37.113ZM29.0675 37.7336C29.0675 37.7336 28.8673 37.7646 28.8673 37.6871C28.8673 37.6095 28.9905 37.6405 29.0675 37.656C29.0675 37.6871 29.0675 37.7181 29.0675 37.7336ZM28.8212 34.8167C28.8981 34.6615 28.9905 34.6771 29.0675 34.8167C28.9905 34.8167 28.8981 34.8167 28.8212 34.8167ZM29.1291 35.5304C29.1291 35.5304 29.1291 35.3753 29.1907 35.3287C29.2368 35.3753 29.283 35.4218 29.3292 35.4683C29.283 35.5459 29.2061 35.608 29.1291 35.5304ZM16.7047 49.9287C16.7047 49.9287 16.7047 49.8667 16.7047 49.8201C16.797 49.8201 16.9048 49.8201 16.951 49.9442C16.874 49.9442 16.7817 49.9442 16.7047 49.9442V49.9287ZM16.951 49.1685C16.874 49.1685 16.7817 49.1685 16.7047 49.184C16.7047 49.1064 16.7047 49.0288 16.7047 48.9513C16.7817 48.9513 16.8586 48.9513 16.951 48.9513C16.951 48.9823 16.951 49.0288 16.9664 49.0599C16.9664 49.0909 16.9664 49.1374 16.9664 49.184L16.951 49.1685ZM17.5822 52.5043C17.5053 52.5043 17.4129 52.5043 17.3359 52.5043C17.3359 52.4577 17.3359 52.4112 17.3359 52.3802C17.4129 52.3802 17.5053 52.3802 17.5822 52.3802C17.5822 52.4267 17.5822 52.4577 17.5822 52.5043ZM19.2296 48.5323C19.1372 48.5323 19.1064 48.4858 19.1064 48.4082C19.1526 48.4082 19.1988 48.4082 19.2296 48.4082C19.2296 48.4548 19.2296 48.5013 19.2296 48.5479C19.2296 48.5013 19.2296 48.4548 19.2296 48.4082C19.2296 48.3772 19.2296 48.3306 19.2296 48.2996C19.1834 48.2996 19.1526 48.2996 19.1064 48.2996C19.0602 48.2996 19.014 48.2996 18.9832 48.2996C18.9832 48.2531 18.9832 48.222 18.9832 48.1755C19.0294 48.1755 19.0602 48.1755 19.091 48.1445C19.1218 48.1445 19.168 48.1445 19.1988 48.1445C19.2296 48.1445 19.245 48.1445 19.2758 48.1445C19.2604 48.191 19.245 48.222 19.2296 48.2686C19.2296 48.2686 19.3066 48.2686 19.3527 48.2531C19.3989 48.2531 19.4451 48.2531 19.4913 48.2686C19.4913 48.3462 19.4913 48.4237 19.4913 48.5168V48.5634C19.4913 48.5634 19.4143 48.5634 19.3681 48.5479C19.322 48.5479 19.2912 48.5323 19.245 48.5323H19.2296ZM19.5991 51.2165H19.5375H19.4759C19.4759 51.1234 19.4759 51.0458 19.4759 50.9683C19.4759 50.9683 19.5683 50.9683 19.5991 50.9683C19.5991 51.0614 19.5991 51.1389 19.5991 51.2165ZM35.2258 40.0919C35.2258 40.0919 35.2566 40.154 35.272 40.185C35.2412 40.185 35.195 40.185 35.1642 40.185C35.1642 40.1385 35.1642 40.0764 35.2412 40.0919H35.2258ZM34.5176 34.2892C34.5176 34.3823 34.5176 34.4598 34.5176 34.5374C34.4714 34.5374 34.4406 34.5374 34.3944 34.5374C34.3944 34.4598 34.3944 34.3667 34.3944 34.2892C34.4406 34.2892 34.4868 34.2892 34.5176 34.2892ZM31.8079 43.676C31.8079 43.676 31.8387 43.7536 31.8541 43.7846H31.7925H31.731C31.7464 43.7536 31.7772 43.7226 31.7925 43.6915L31.8079 43.676ZM30.7302 31.7446C30.7302 31.7446 30.7302 31.8222 30.7302 31.8532C30.6841 31.8532 30.6225 31.8532 30.6379 31.7757C30.6379 31.7602 30.6994 31.7446 30.7302 31.7446ZM29.8835 40.7746C29.8835 40.7746 29.9451 40.7281 29.9758 40.7126C29.9758 40.7591 29.9758 40.7901 29.9758 40.8367C29.9451 40.8212 29.9143 40.7901 29.8835 40.7746ZM29.3446 48.4082C29.4986 48.4392 29.4832 48.5479 29.4524 48.6565C29.4216 48.6565 29.3754 48.6565 29.3446 48.6565C29.3446 48.5789 29.3446 48.4858 29.3446 48.4082ZM28.4671 47.6324C28.5132 47.5238 28.6056 47.5083 28.7134 47.5083C28.7134 47.5549 28.7134 47.6014 28.7134 47.648C28.6364 47.648 28.544 47.648 28.4671 47.648V47.6324ZM28.4671 48.9202C28.4671 48.9202 28.5748 48.8737 28.5748 48.8116C28.6518 48.8582 28.7442 48.9047 28.8212 48.9513C28.8212 48.9513 28.8212 49.0288 28.8212 49.0599C28.698 49.0909 28.5748 49.1064 28.4517 49.0599C28.4517 49.0133 28.4517 48.9668 28.4517 48.9202H28.4671ZM28.5748 49.4322C28.5748 49.4322 28.4978 49.4322 28.4517 49.4322C28.4517 49.3547 28.4517 49.2616 28.4517 49.184C28.6056 49.215 28.5748 49.3236 28.5748 49.4322ZM26.8043 47.7721C26.8043 47.6945 26.8043 47.6014 26.8351 47.5238C26.8351 47.4928 26.8813 47.4618 26.9121 47.4463C26.9891 47.4152 27.0199 47.4773 27.0352 47.5394C27.0968 47.7411 27.0352 47.7876 26.8043 47.7721ZM26.6196 49.9908V50.0373H26.5888L26.6196 49.9908ZM26.1885 47.5238C26.1885 47.5238 26.2501 47.4152 26.3116 47.4307C26.3424 47.4307 26.3732 47.4773 26.3732 47.5083C26.3732 47.5859 26.327 47.6169 26.2655 47.6324C26.2347 47.6324 26.1885 47.6324 26.1577 47.6324C26.1577 47.6014 26.1577 47.5549 26.1731 47.5238H26.1885ZM24.5411 47.1515C24.5719 47.229 24.6027 47.3066 24.6335 47.3997C24.4488 47.3997 24.3718 47.3066 24.3872 47.136C24.4334 47.136 24.4949 47.136 24.5411 47.1515ZM24.264 46.3602C24.2794 46.4688 24.2948 46.5774 24.1408 46.6084C24.1408 46.4998 24.1408 46.4067 24.264 46.3602ZM23.7559 48.9202C23.7406 48.9513 23.7252 48.9823 23.7098 49.0133C23.6328 48.9202 23.7098 48.9357 23.7559 48.9202ZM22.124 49.3081C22.047 49.3081 21.9546 49.3081 21.8777 49.3081C21.9238 49.1995 22.0162 49.184 22.124 49.184C22.124 49.2305 22.124 49.2771 22.124 49.3236V49.3081ZM21.7391 47.5238C21.8931 47.5238 21.9238 47.648 21.9854 47.7566C21.9085 47.7721 21.8161 47.7876 21.7391 47.8031C21.7083 47.7721 21.6621 47.7721 21.6313 47.7566C21.6313 47.71 21.6313 47.6635 21.6313 47.6169C21.6929 47.6169 21.7391 47.5704 21.7391 47.5083V47.5238ZM20.2919 47.1515C20.2919 47.1515 20.3227 47.1825 20.3227 47.198C20.3227 47.198 20.2919 47.229 20.2765 47.229C20.2765 47.229 20.2457 47.198 20.2457 47.1825C20.2457 47.1825 20.2765 47.1515 20.2919 47.1515ZM19.9378 51.5113C19.9378 51.5113 19.9378 51.5889 19.9378 51.6199C19.8762 51.6199 19.83 51.5734 19.83 51.5113C19.8608 51.5113 19.907 51.5113 19.9378 51.5113ZM19.83 54.1644C19.83 54.1644 19.8916 54.1955 19.9224 54.2265C19.83 54.3041 19.8454 54.211 19.83 54.1644ZM20.2149 51.7285C20.2149 51.7285 20.1225 51.6509 20.0917 51.6044C20.0917 51.682 20.0917 51.7751 20.0917 51.8526C20.0456 51.8526 20.0148 51.8682 19.9686 51.8837V51.8371C19.8916 51.8371 19.7992 51.8371 19.7222 51.8526C19.7222 51.8061 19.7222 51.7751 19.7222 51.7285C19.7992 51.7285 19.8762 51.7285 19.9532 51.713C19.9532 51.682 19.9686 51.6509 19.9686 51.6044C20.0148 51.6044 20.061 51.6044 20.1071 51.6044C20.1071 51.5579 20.1071 51.5268 20.1071 51.4803C20.1841 51.4803 20.2765 51.4803 20.3535 51.4803C20.3535 51.5268 20.3535 51.5734 20.3535 51.6199C20.3073 51.6665 20.2611 51.6975 20.2149 51.744V51.7285ZM20.7076 56.6004C20.7076 56.6004 20.6306 56.6004 20.5998 56.6004C20.5998 56.5073 20.5998 56.4297 20.5998 56.3366C20.646 56.3366 20.6922 56.3366 20.7384 56.3366C20.7384 56.4142 20.7384 56.5073 20.7384 56.5849L20.7076 56.6004ZM20.5998 52.3647C20.5998 52.2871 20.5998 52.194 20.5998 52.1164C20.646 52.1164 20.6768 52.1164 20.723 52.1164C20.723 52.2095 20.723 52.2871 20.723 52.3802C20.6768 52.3802 20.646 52.3802 20.5998 52.3802V52.3647ZM20.723 50.5804C20.646 50.5804 20.569 50.5804 20.492 50.5649C20.5382 50.4563 20.6152 50.4252 20.723 50.4407C20.723 50.4873 20.723 50.5338 20.723 50.5804ZM20.8923 53.6369C20.8923 53.6369 20.8923 53.5904 20.8615 53.5749C20.9847 53.5128 21.0925 53.4973 21.231 53.5438C21.231 53.5749 21.231 53.6059 21.231 53.6524C21.1233 53.699 21.0001 53.6835 20.8923 53.6524V53.6369ZM21.6005 57.6244C21.5236 57.6244 21.4312 57.6244 21.3542 57.6244C21.3542 57.5934 21.3542 57.5468 21.3542 57.5158C21.462 57.5158 21.5543 57.5003 21.6005 57.6244ZM21.6005 49.153C21.6159 49.1219 21.6313 49.0909 21.6621 49.0599C21.7545 49.1685 21.6621 49.1374 21.6005 49.153ZM21.8469 49.9287C21.8469 49.9287 21.7545 49.9287 21.7237 49.9287C21.7237 49.8512 21.7237 49.7581 21.7237 49.6805C21.7545 49.6805 21.8007 49.6805 21.8315 49.6805C21.8315 49.7581 21.8315 49.8512 21.8469 49.9287ZM22.3549 49.8046C22.278 49.8046 22.1856 49.8046 22.1086 49.8046C22.1086 49.727 22.1086 49.6339 22.1086 49.5564C22.1856 49.5564 22.278 49.5564 22.3549 49.5564C22.3703 49.4633 22.3549 49.3236 22.5089 49.3547C22.6013 49.3547 22.6013 49.4788 22.6013 49.5564C22.5243 49.5564 22.4319 49.5564 22.3549 49.5564C22.3549 49.6339 22.3549 49.727 22.3549 49.8046ZM22.3549 54.8006C22.3549 54.8006 22.3549 54.723 22.3549 54.6765C22.4319 54.6765 22.5243 54.6765 22.6013 54.6765C22.6013 54.7075 22.6013 54.7385 22.6013 54.7851C22.5243 54.7851 22.4319 54.7851 22.3549 54.8006ZM22.5089 59.2845C22.5089 59.1914 22.4935 59.1139 22.4781 59.0208C22.5243 59.0208 22.5705 59.0208 22.6013 59.0208C22.6013 59.1294 22.5859 59.2225 22.4935 59.269L22.5089 59.2845ZM22.6013 54.0403H22.5397H22.4781C22.4319 53.9627 22.4011 53.8697 22.3549 53.7921C22.4011 53.7921 22.4319 53.7766 22.4781 53.761C22.5243 53.761 22.5551 53.761 22.6013 53.761C22.6013 53.8697 22.5859 53.9472 22.5705 54.0403H22.6013ZM22.786 48.3927H22.7244C22.7244 48.3927 22.6936 48.2375 22.8014 48.222C22.8014 48.222 22.8168 48.3306 22.8322 48.3927H22.7706H22.786ZM22.9246 49.5564H22.863C22.863 49.4788 22.863 49.3857 22.863 49.3081C22.9092 49.3081 22.94 49.3081 22.9862 49.3081C22.9862 49.3857 22.9862 49.4788 22.9862 49.5564H22.9246ZM23.0939 56.3521C23.0939 56.3521 23.0169 56.3521 22.9862 56.3521C22.9862 56.2745 22.9862 56.1814 22.9862 56.1039C23.0323 56.1039 23.0631 56.1039 23.1093 56.1039C23.1093 56.1814 23.1093 56.2745 23.1093 56.3521H23.0939ZM23.3557 49.2926C23.2787 49.2926 23.1863 49.2926 23.1093 49.2926C23.1863 49.153 23.2787 49.1219 23.3557 49.2926ZM23.2325 58.788C23.2325 58.7105 23.2325 58.6174 23.2479 58.5398C23.2787 58.5398 23.3095 58.5398 23.3403 58.5398C23.3864 58.6019 23.4172 58.6484 23.4634 58.7105C23.3864 58.7415 23.3095 58.7725 23.2325 58.788ZM23.7252 53.9162C23.7252 53.9162 23.6482 53.9162 23.602 53.9162C23.602 53.8231 23.602 53.7455 23.602 53.6524C23.6482 53.6524 23.679 53.6369 23.7252 53.6214C23.7252 53.7145 23.7252 53.8076 23.7252 53.9007V53.9162ZM23.8483 51.8682C23.8483 51.8682 23.7713 51.8682 23.7406 51.8682C23.7406 51.7906 23.7406 51.6975 23.7406 51.6199C23.7867 51.6199 23.8175 51.6199 23.8637 51.6199C23.8637 51.6975 23.8637 51.7906 23.8637 51.8682H23.8483ZM23.9253 54.2731C23.9253 54.2731 23.8791 54.211 23.8637 54.18C23.9099 54.18 23.9407 54.18 23.9869 54.18L23.9253 54.2731ZM24.1716 57.6089V57.5778H24.187V57.6089H24.1716ZM24.2178 47.6635C24.1254 47.6635 24.0023 47.6635 23.9715 47.5238C24.0485 47.4773 24.11 47.4152 24.187 47.3687C24.2794 47.5238 24.4334 47.5083 24.5873 47.5083C24.5873 47.4618 24.5873 47.4307 24.5873 47.3842C24.7105 47.4152 24.8336 47.4152 24.9568 47.3532C24.9568 47.3997 24.9568 47.4307 24.9568 47.4773C24.8336 47.4773 24.7105 47.4773 24.5873 47.4928C24.5873 47.5704 24.5873 47.6635 24.5873 47.7411C24.5565 47.7411 24.5103 47.7411 24.4642 47.7411C24.4334 47.5859 24.3256 47.5859 24.2178 47.6324V47.6635ZM24.849 49.4322C24.849 49.5098 24.849 49.6029 24.849 49.6805H24.8029H24.7567C24.7567 49.6029 24.7567 49.5098 24.7567 49.4322C24.8029 49.4322 24.849 49.4322 24.8798 49.4322H24.849ZM24.6027 49.0444C24.6951 49.0599 24.7259 49.1219 24.6951 49.215C24.6951 49.215 24.6643 49.246 24.6489 49.246C24.5719 49.1995 24.5873 49.1219 24.5873 49.0444H24.6027ZM24.6027 53.7921C24.6027 53.7921 24.6643 53.7921 24.6951 53.7921C24.6951 53.8697 24.6951 53.9627 24.7105 54.0403C24.7105 54.0403 24.6181 54.0403 24.5719 54.0403C24.5719 53.9627 24.5873 53.8697 24.6027 53.7921ZM24.7105 58.0278C24.7105 58.0278 24.6335 58.0278 24.5873 58.0278C24.5873 57.8416 24.6643 57.764 24.8336 57.764C24.8336 57.8726 24.8029 57.9657 24.7105 58.0278ZM24.9568 56.3521C24.8798 56.3521 24.7875 56.3521 24.7105 56.3521C24.7105 56.3056 24.7105 56.2745 24.7105 56.228C24.7875 56.228 24.8798 56.228 24.9568 56.228C24.9568 56.2745 24.9568 56.3056 24.9568 56.3521ZM25.0954 46.9653C24.9568 46.9653 24.9876 46.8412 24.9876 46.7326C25.0492 46.7326 25.1262 46.7326 25.1878 46.7326C25.1878 46.8256 25.2647 46.9498 25.0954 46.9498V46.9653ZM25.6958 55.4988C25.6958 55.4988 25.7112 55.5608 25.7266 55.5919C25.6804 55.5919 25.6496 55.5919 25.6034 55.5919C25.6034 55.5298 25.6342 55.4833 25.6958 55.5143V55.4988ZM25.6496 55.266C25.6496 55.1885 25.7574 55.204 25.8344 55.204C25.8344 55.235 25.8344 55.2816 25.8344 55.3126C25.7574 55.3126 25.6496 55.3436 25.6342 55.266H25.6496ZM25.7882 56.74H25.7266C25.7266 56.74 25.7266 56.6624 25.7266 56.6159C25.8036 56.6159 25.8344 56.6624 25.8498 56.74H25.7882ZM25.8498 52.5198C25.7728 52.5198 25.6958 52.4888 25.6034 52.4733V52.4112C25.6034 52.4112 25.6804 52.3026 25.7112 52.256C25.7574 52.256 25.7882 52.256 25.8344 52.256C25.8344 52.3491 25.8344 52.4267 25.8344 52.5198H25.8498ZM25.8498 46.9963C25.8498 46.9963 25.7112 46.8877 25.7574 46.8101C25.8036 46.7325 25.896 46.7481 25.9575 46.8101C26.0191 46.8567 26.0499 46.9343 26.0961 46.9963C26.0961 47.0894 26.1423 47.2135 25.9883 47.2135C25.8652 47.2135 25.8498 47.1049 25.8498 46.9963ZM26.0499 55.7005H26.0037C26.0037 55.7005 25.9729 55.5453 25.9729 55.4677C26.1115 55.4988 26.0807 55.6074 26.0499 55.7005ZM26.0961 48.4237C26.0961 48.4237 26.1885 48.3306 26.2193 48.2841C26.2655 48.3151 26.327 48.3462 26.3578 48.3772C26.4964 48.5479 26.4656 48.5944 26.2193 48.6565C26.1731 48.6099 26.1423 48.5789 26.0961 48.5323C26.0961 48.5013 26.0961 48.4548 26.0961 48.4237ZM26.2193 49.0599C26.2193 48.9823 26.2193 48.8892 26.2193 48.8116C26.2655 48.8116 26.2963 48.8116 26.3424 48.8116C26.3424 48.9202 26.3424 49.0133 26.2193 49.0599ZM26.3116 49.246C26.2193 49.3236 26.2347 49.2461 26.2193 49.1995C26.2501 49.215 26.2809 49.2305 26.3116 49.246ZM26.481 56.7555H26.4656C26.327 56.7245 26.327 56.6159 26.3424 56.4918C26.4656 56.4918 26.5888 56.5073 26.6965 56.5228C26.6965 56.5538 26.6965 56.5693 26.6965 56.6004C26.6042 56.6314 26.4964 56.6469 26.481 56.771V56.7555ZM26.327 56.1039V55.9642C26.404 55.9642 26.4964 55.9797 26.5734 55.9953C26.5734 56.0263 26.5734 56.0418 26.5734 56.0728C26.4964 56.0728 26.404 56.0884 26.327 56.1039ZM26.8197 52.5043C26.8197 52.5043 26.7427 52.5043 26.6965 52.5043C26.5118 52.3802 26.5888 52.1319 26.4348 51.9923C26.404 51.9923 26.3578 51.9923 26.327 51.9923C26.327 52.0543 26.2963 52.1164 26.2963 52.163C26.2655 52.1474 26.2347 52.1319 26.2039 52.1009C26.2039 51.9768 26.2347 51.8682 26.3578 51.8061V51.8371C26.3578 51.8371 26.5118 51.8371 26.5888 51.8371C26.5888 51.8837 26.5888 51.9147 26.6042 51.9613C26.558 51.9613 26.4964 51.9613 26.4502 51.9768C26.4964 51.9768 26.558 51.9768 26.6042 51.9613C26.6811 52.0388 26.7581 52.1319 26.8351 52.2095C26.8351 52.3026 26.8351 52.3957 26.8197 52.4733V52.5043ZM26.9429 52.1164C26.9429 52.1164 26.8659 52.1164 26.8197 52.1164C26.8197 51.9768 26.8967 51.8682 26.9429 51.744C27.1122 51.744 27.2046 51.8216 27.1892 51.9923C27.0814 51.9923 26.9891 52.0078 26.9275 52.1164H26.9429ZM27.1276 49.7736C27.1276 49.7736 27.0814 49.7115 27.0814 49.6805C27.0814 49.6184 27.143 49.5874 27.2046 49.6029C27.22 49.6029 27.2354 49.6495 27.2662 49.696C27.22 49.727 27.1738 49.7581 27.1276 49.7891V49.7736ZM27.7127 53.4197C27.7896 53.4197 27.882 53.4197 27.959 53.4197C27.959 53.4507 27.959 53.4973 27.959 53.5283C27.8512 53.5283 27.7589 53.5283 27.7127 53.4042V53.4197ZM27.959 46.6239C27.9436 46.4378 27.9898 46.3292 28.2053 46.3757C28.2053 46.4222 28.2053 46.4533 28.2053 46.4998C28.1591 46.5464 28.113 46.5774 28.0822 46.6239C28.036 46.6239 28.0052 46.6239 27.959 46.6239ZM28.3439 54.18C28.3593 54.0869 28.3439 53.9472 28.4979 53.9783C28.5902 53.9783 28.5902 54.1024 28.5902 54.18C28.5132 54.18 28.4209 54.18 28.3439 54.18ZM29.1137 54.18C29.1137 54.1024 29.0829 53.9783 29.1599 53.9627C29.283 53.9162 29.3138 54.0403 29.3292 54.1489C29.2522 54.1489 29.1907 54.18 29.1137 54.18ZM29.2676 53.7145C29.2676 53.7145 29.2676 53.6059 29.2676 53.5593C29.2984 53.5593 29.3292 53.5593 29.3446 53.5593C29.3446 53.6214 29.3908 53.699 29.283 53.7145H29.2676ZM29.4678 52.737C29.4678 52.737 29.3908 52.8456 29.36 52.9077C29.36 52.9077 29.2368 52.9542 29.2368 53.0318C29.2368 53.1094 29.2368 53.187 29.2215 53.2646C29.2215 53.2646 29.1445 53.2646 29.0983 53.2646C29.0983 53.1715 29.0983 53.0473 28.9751 53.0163C28.9751 52.9698 28.9751 52.9387 28.9751 52.8922C28.9751 52.8922 29.0829 52.8301 29.0983 52.7681C29.1445 52.7215 29.1907 52.675 29.2215 52.6439C29.2984 52.6439 29.3754 52.6439 29.4678 52.6595H29.4524C29.4524 52.6595 29.4524 52.706 29.4524 52.7215L29.4678 52.737ZM28.9751 51.8837C29.0059 51.8992 29.0367 51.9147 29.0675 51.9302C28.9751 52.0078 28.9905 51.9302 28.9751 51.8837ZM29.6063 50.4718C29.5294 50.4718 29.4678 50.5338 29.4832 50.6269C29.3138 50.6114 29.2522 50.72 29.2215 50.8597C29.1753 50.8597 29.1445 50.8597 29.0983 50.8597C29.0829 50.7976 29.0521 50.751 28.9751 50.751C28.8827 50.751 28.8058 50.751 28.7134 50.751C28.6826 50.658 28.7442 50.5804 28.8058 50.5183C28.775 50.4718 28.7288 50.4252 28.698 50.3787C28.6056 50.5183 28.4978 50.6424 28.3439 50.7355C28.0514 50.7976 28.113 50.5338 28.0514 50.3787C28.0206 50.3321 27.9898 50.2701 27.959 50.2235C28.0052 50.2235 28.0514 50.2235 28.0822 50.2235C28.0822 50.2546 28.0822 50.3011 28.0822 50.3321C28.113 50.3321 28.1591 50.3476 28.1899 50.3476C28.4055 50.5649 28.4209 50.3632 28.4517 50.208C28.5286 50.1615 28.6056 50.1149 28.6826 50.0684C28.6826 50.1615 28.6826 50.239 28.698 50.3321C28.7442 50.3787 28.775 50.4252 28.8058 50.4718C28.852 50.5338 28.8827 50.6114 28.9289 50.6735C28.9751 50.6424 29.0059 50.6114 29.0521 50.5804C29.2061 50.5493 29.1445 50.5028 29.0521 50.4563C29.0521 50.4252 29.0521 50.3942 29.0521 50.3632C29.2676 50.3321 29.3498 50.239 29.2984 50.0839C29.2984 50.0839 29.3754 50.0839 29.4216 50.0839C29.4986 50.0839 29.5756 50.0994 29.6525 50.1149C29.6525 50.1925 29.6833 50.2701 29.6833 50.3476C29.6217 50.3787 29.5602 50.4097 29.5602 50.4873L29.6063 50.4718ZM29.7295 48.9202C29.7295 48.9202 29.7295 48.8427 29.7295 48.8116C29.7295 48.7651 29.7295 48.734 29.7295 48.6875C29.8065 48.6875 29.8989 48.6875 29.9758 48.6875C29.9758 48.8582 29.8989 48.9513 29.7295 48.9357V48.9202ZM30.3607 50.5959C30.2838 50.5959 30.2068 50.5959 30.1144 50.5959C30.1452 50.4563 30.253 50.4563 30.3607 50.4718C30.3607 50.4718 30.3607 50.5493 30.3607 50.5959ZM30.3607 42.5124C30.3607 42.4348 30.3607 42.3417 30.3607 42.2641C30.4069 42.2641 30.4377 42.2641 30.4839 42.2641C30.4839 42.3572 30.4839 42.4348 30.4839 42.5279C30.4377 42.5279 30.4069 42.5279 30.3607 42.5279V42.5124ZM30.7148 47.6324C30.6379 47.6324 30.5609 47.6324 30.4685 47.648C30.4685 47.6014 30.4685 47.5549 30.4685 47.4928C30.4993 47.4928 30.5301 47.4928 30.5455 47.4928C30.6071 47.4928 30.6533 47.4928 30.7148 47.4928C30.7148 47.5394 30.7148 47.5704 30.7148 47.6014V47.6324ZM30.8534 35.8562C30.8842 35.8717 30.915 35.9028 30.9458 35.9183C30.8534 35.9959 30.8688 35.9183 30.8534 35.8562ZM31.0997 43.5364C31.0536 43.5364 31.0228 43.5209 31.0382 43.4743C31.0382 43.4743 31.0689 43.4743 31.0843 43.4743C31.0843 43.4743 31.0843 43.5053 31.0997 43.5209V43.5364ZM31.4846 48.9357C31.4384 49.0444 31.3307 49.0754 31.2229 49.0599C31.2229 48.9668 31.2229 48.8892 31.2229 48.8116C31.2691 48.8116 31.2999 48.8116 31.3461 48.8116C31.3923 48.8582 31.4231 48.9047 31.4692 48.9357H31.4846ZM31.4846 46.8877C31.4846 46.8877 31.4846 46.7946 31.4846 46.7636C31.5616 46.7636 31.654 46.7636 31.731 46.7636C31.6848 46.8722 31.5924 46.8877 31.4846 46.8877ZM31.8541 46.1119C31.7772 46.1119 31.6848 46.1119 31.6078 46.1119C31.6078 46.0654 31.6078 46.0344 31.6078 45.9878C31.6848 45.9878 31.7772 45.9878 31.8541 45.9878C31.8541 46.0188 31.8541 46.0654 31.8541 46.0964V46.1119ZM31.9311 48.9357H31.8695C31.8695 48.8427 31.8695 48.7651 31.8695 48.6875C31.9157 48.6875 31.9465 48.6875 31.9927 48.6875C31.9927 48.7806 31.9927 48.8582 31.9927 48.9513H31.9311V48.9357ZM31.9927 43.164C31.9927 43.164 31.9927 43.0864 31.9927 43.0399C32.0235 43.0554 32.0543 43.0709 32.0851 43.1019C32.0543 43.1175 32.0235 43.1485 31.9927 43.164ZM31.9927 41.628C31.9927 41.628 32.0697 41.628 32.1005 41.628C32.1005 41.7055 32.1005 41.7986 32.1005 41.8762C31.926 41.8452 31.8849 41.7573 31.9773 41.6125L31.9927 41.628ZM32.239 33.4203C32.316 33.4203 32.4084 33.4203 32.4854 33.4203C32.4854 33.4669 32.4854 33.4979 32.4854 33.5444C32.4084 33.5444 32.316 33.5444 32.239 33.5444C32.239 33.4979 32.239 33.4669 32.239 33.4203ZM32.4546 39.6575C32.4546 39.6575 32.4084 39.5954 32.4084 39.5644C32.4084 39.5024 32.47 39.4713 32.5315 39.4868C32.5623 39.4868 32.5623 39.5489 32.5777 39.5799C32.5623 39.642 32.5162 39.673 32.4546 39.6575ZM32.8703 38.4163C32.9472 38.4163 33.0396 38.4318 33.1166 38.4473C33.1166 38.4783 33.1166 38.5094 33.1166 38.5404C33.0088 38.5404 32.8857 38.5869 32.8703 38.4163ZM32.8703 39.7041C32.8703 39.7041 32.9318 39.5954 32.9934 39.5799C32.9934 39.6265 32.9934 39.6575 32.9934 39.7041C32.9472 39.7041 32.9164 39.7041 32.8703 39.7041ZM33.1166 45.2276C33.1166 45.3051 33.1166 45.3982 33.1166 45.4758C33.0704 45.4758 33.0396 45.4758 32.9934 45.4758C32.9934 45.3827 32.9934 45.3051 32.9934 45.212C33.0396 45.212 33.0704 45.212 33.1166 45.212V45.2276ZM33.2244 32.9083H33.1936H33.1628C33.132 32.8152 33.1166 32.7066 33.0088 32.6445C33.0088 32.6135 33.0088 32.567 33.0088 32.5359C33.0858 32.5359 33.1782 32.5359 33.2551 32.5359C33.2859 32.66 33.2705 32.7997 33.2244 32.9238V32.9083ZM33.6246 38.2922H33.5631H33.5015C33.5015 38.2456 33.5015 38.2146 33.5015 38.168C33.5477 38.168 33.5785 38.168 33.6246 38.168C33.6246 38.2146 33.6246 38.2456 33.6246 38.2922ZM33.6246 37.144C33.6246 37.144 33.7016 37.144 33.7324 37.144C33.7324 37.1906 33.7324 37.2216 33.7324 37.2681C33.6708 37.2681 33.6246 37.2061 33.6093 37.144H33.6246ZM34.0557 33.1721H33.9941C33.9941 33.0945 33.9941 33.0014 33.9941 32.9238C34.0249 32.9238 34.0711 32.9238 34.1019 32.9238C34.1019 33.0014 34.1019 33.0945 34.1019 33.1721H34.0403H34.0557ZM34.2405 39.4558C34.2405 39.4558 34.1635 39.4558 34.1173 39.4558C34.1173 39.3782 34.1173 39.2851 34.1173 39.2076C34.1635 39.2076 34.1943 39.2076 34.2405 39.2076C34.2405 39.2851 34.2405 39.3782 34.2405 39.4558ZM34.1635 35.5304C34.1635 35.5304 34.1635 35.3908 34.2405 35.3442C34.2867 35.3908 34.3329 35.4373 34.3944 35.4839C34.3329 35.5614 34.2559 35.639 34.1635 35.5304ZM34.4868 39.3317C34.456 39.3162 34.4252 39.3007 34.4098 39.2851C34.4868 39.2076 34.4714 39.2851 34.4868 39.3317ZM34.6254 39.099C34.6254 39.099 34.5484 39.0369 34.5638 39.0214C34.5946 38.9283 34.687 38.9593 34.7485 38.9593C34.7024 39.0059 34.6716 39.0524 34.6254 39.099ZM34.8871 45.7396C34.8871 45.7396 34.8871 45.662 34.8871 45.6154C34.9333 45.6154 34.9641 45.6154 35.0103 45.6154C35.0103 45.693 34.9641 45.724 34.8871 45.7396ZM34.8871 42.7761C34.8871 42.7761 34.8871 42.6985 34.8871 42.6675C34.9333 42.621 34.9641 42.5744 35.0103 42.5279C35.0565 42.5279 35.0872 42.5279 35.1334 42.5279C35.1334 42.621 35.1334 42.6985 35.1334 42.7916C35.0565 42.7916 34.9795 42.7916 34.8871 42.7916V42.7761ZM35.426 44.7776C35.426 44.7776 35.3182 44.7776 35.3028 44.7155C35.3028 44.6845 35.3182 44.638 35.349 44.6224C35.4106 44.5914 35.4567 44.6225 35.4721 44.669C35.4721 44.7 35.4567 44.7466 35.426 44.7621V44.7776ZM35.8878 44.8397C35.8878 44.8397 35.9648 44.8397 36.011 44.8397C36.011 44.8862 36.011 44.9172 36.011 44.9638C35.934 44.9638 35.9032 44.9172 35.8878 44.8397ZM36.011 42.4037H35.9494H35.8878C35.8878 42.3262 35.8878 42.2331 35.8878 42.1555C35.934 42.1555 35.9802 42.1555 36.011 42.1555C36.011 42.2331 36.011 42.3262 36.011 42.4037ZM36.3805 39.4403C36.3035 39.4403 36.2111 39.4558 36.1342 39.4713C36.1342 39.4248 36.1342 39.3782 36.1342 39.3472C36.2111 39.3472 36.3035 39.3472 36.3805 39.3472C36.3805 39.3472 36.3805 39.4093 36.3805 39.4403ZM36.6422 46.9032C36.7192 46.9032 36.8116 46.9032 36.8886 46.9032C36.8116 47.0739 36.7346 47.0429 36.6422 46.9032ZM37.1503 46.3757C37.1503 46.3757 37.1503 46.2981 37.1503 46.2516C37.2273 46.2516 37.3196 46.2516 37.3966 46.2516C37.3966 46.2981 37.3966 46.3447 37.3966 46.3757C37.3196 46.3757 37.2273 46.3757 37.1503 46.3757Z" fill="#F0E74D"/>
<path d="M36.2727 25.3504L36.3011 25.306L36.2727 25.3504Z" fill="#F0E74D"/>
<path d="M41.7686 9.37143C41.6916 9.29386 41.7686 9.21628 41.8302 9.16973L42.2921 7.68025L34.8097 4.79438L30.3757 26.4384L36.2107 26.9659L41.7686 9.35592C41.7686 9.35592 41.7686 9.35592 41.7532 9.35592L41.7686 9.37143ZM41.8302 7.89747C41.8148 7.9285 41.7994 7.95953 41.784 7.99056C41.6916 7.89747 41.784 7.91298 41.8302 7.89747ZM37.1499 9.69726C37.1499 9.69726 37.2423 9.77484 37.2884 9.80587C37.2577 9.96102 37.1499 9.94551 37.0421 9.92999C37.0421 9.8369 37.0421 9.7438 37.1499 9.69726ZM36.6418 25.1972C36.5187 25.1506 36.5187 25.0575 36.534 24.9489C36.7034 24.9644 36.6572 25.0886 36.6418 25.1972ZM36.3955 22.9164C36.3955 22.994 36.3955 23.0716 36.3955 23.1491C36.2415 23.0716 36.2569 22.994 36.3955 22.9164ZM34.2555 8.28535C34.2555 8.36293 34.2555 8.45602 34.2555 8.5336C34.1477 8.48705 34.1323 8.37845 34.1323 8.28535C34.1785 8.28535 34.2093 8.28535 34.2555 8.28535ZM34.2247 22.963C34.2247 22.963 34.1631 22.994 34.1323 23.025C34.0707 23.0095 34.0245 22.963 34.0553 22.8854C34.0553 22.8544 34.1169 22.8233 34.1477 22.8233C34.2247 22.8233 34.2555 22.8854 34.2247 22.963ZM34.1169 16.3689C34.1169 16.3999 34.0861 16.431 34.0861 16.462C34.0707 16.4465 34.0553 16.431 34.0399 16.4154C34.0707 16.4154 34.1015 16.3844 34.1323 16.3689H34.1169ZM33.6242 16.2293C33.6242 16.3999 33.6088 16.5706 33.5935 16.7413C33.4857 16.6947 33.4857 16.5861 33.4703 16.4775C33.4703 16.3999 33.4703 16.3068 33.4703 16.2293C33.4703 16.2293 33.5627 16.2293 33.5935 16.2293H33.6242ZM31.9769 23.4129C31.9769 23.4129 32.0539 23.4129 32.1001 23.4129C32.1001 23.5215 32.1001 23.6146 31.9769 23.6612C31.9769 23.5681 31.9769 23.4905 31.9769 23.3974V23.4129ZM31.8691 25.973C31.8691 25.973 31.8691 25.9109 31.8691 25.8799C31.9461 25.8799 32.0385 25.8799 32.1155 25.8643C32.1155 25.9109 32.1155 25.9574 32.1155 26.004C32.0385 26.004 31.9615 26.004 31.8845 26.004L31.8691 25.973ZM32.3618 22.1251C32.3618 22.032 32.3618 21.9545 32.3618 21.8769C32.4388 21.8769 32.5311 21.8924 32.6081 21.9079C32.6081 22.0786 32.5311 22.1406 32.3772 22.1406L32.3618 22.1251ZM32.7313 15.7172C32.7621 15.7328 32.7929 15.7638 32.8237 15.7793C32.7313 15.8724 32.7467 15.7793 32.7313 15.7172ZM33.1008 22.7613C33.1008 22.7613 33.0238 22.7613 32.9776 22.7613C32.9776 22.6682 33.0238 22.6371 33.1008 22.6371C33.1008 22.6837 33.1008 22.7147 33.1008 22.7613ZM33.2394 15.5776C33.2394 15.5776 33.2086 15.469 33.147 15.438C33.147 15.3914 33.147 15.3449 33.1316 15.2983C33.1624 15.2983 33.1932 15.2983 33.224 15.2983C33.2701 15.2983 33.3163 15.2983 33.3625 15.2983C33.3625 15.2983 33.4395 15.3914 33.5011 15.4069C33.5165 15.5311 33.5011 15.6242 33.3779 15.6707C33.3317 15.6242 33.2855 15.5931 33.2394 15.5466V15.5776ZM33.2701 17.8584C33.2701 17.8584 33.2547 17.7963 33.2394 17.7653C33.2701 17.7808 33.3009 17.7963 33.3163 17.8118C33.3009 17.8118 33.2855 17.8429 33.2701 17.8584ZM33.3625 22.9319C33.3317 22.8544 33.3933 22.7923 33.4703 22.7768C33.4703 22.8544 33.4703 22.9319 33.4703 23.025C33.4241 22.994 33.3625 22.9785 33.3471 22.9474L33.3625 22.9319ZM33.4857 17.5015C33.5319 17.5015 33.5627 17.5015 33.6088 17.5015C33.6396 17.5015 33.6704 17.5481 33.6858 17.5636C33.655 17.5791 33.6242 17.6101 33.5781 17.6101C33.5165 17.6101 33.4857 17.5481 33.4703 17.486L33.4857 17.5015ZM33.7166 24.9334C33.7166 24.9334 33.6396 24.9334 33.6088 24.9334C33.6088 24.8403 33.6088 24.7627 33.6088 24.6697C33.655 24.6697 33.7012 24.6697 33.732 24.6697C33.732 24.7472 33.732 24.8403 33.732 24.9179L33.7166 24.9334ZM33.7166 25.9574C33.7166 25.9574 33.7166 25.8023 33.7166 25.7247C33.7474 25.7247 33.7782 25.7247 33.809 25.7247C33.8398 25.8333 33.9014 25.9574 33.7012 25.973L33.7166 25.9574ZM33.809 24.3749C33.809 24.3749 33.7782 24.3438 33.7474 24.3128C33.7782 24.2973 33.809 24.2818 33.8552 24.2663C33.8552 24.2663 33.8244 24.3438 33.7936 24.3749H33.809ZM33.732 18.7583C33.732 18.6807 33.732 18.6031 33.732 18.51C33.809 18.51 33.8552 18.5721 33.886 18.6342C33.8398 18.6652 33.7936 18.7117 33.7474 18.7428L33.732 18.7583ZM34.5634 24.8869C34.5634 24.8869 34.4864 24.8403 34.4864 24.7938C34.5326 24.7938 34.5634 24.7938 34.6096 24.7938C34.6096 24.8248 34.5788 24.8869 34.5634 24.8869ZM34.4864 24.561C34.4864 24.561 34.4094 24.561 34.3632 24.561C34.2401 24.561 34.1169 24.5455 33.9937 24.53C33.9937 24.4524 33.9937 24.3593 33.9783 24.2818C34.1939 24.2818 34.4094 24.2818 34.625 24.2818C34.625 24.3749 34.625 24.4524 34.625 24.5455C34.5788 24.5455 34.5326 24.561 34.5018 24.5766L34.4864 24.561ZM34.6096 19.022C34.6096 19.022 34.6096 18.9445 34.6096 18.8979C34.6866 18.8979 34.7789 18.8979 34.8559 18.8979C34.8559 18.9445 34.8559 18.9755 34.8559 19.022C34.7789 19.022 34.6866 19.022 34.6096 19.022ZM34.9945 16.462C34.9945 16.462 34.9021 16.5551 34.8713 16.5861C34.8713 16.5861 34.7943 16.5861 34.7481 16.5861C34.7481 16.5085 34.7481 16.4154 34.7481 16.3379C34.8251 16.3379 34.9175 16.3379 34.9945 16.3379C34.9945 16.3379 34.9945 16.4154 34.9945 16.462ZM35.3794 23.2422C35.3794 23.2422 35.3794 23.1647 35.3794 23.1336C35.4563 23.1336 35.5487 23.1336 35.6257 23.1336C35.5949 23.2888 35.4871 23.2578 35.3794 23.2422ZM35.6257 15.438C35.7027 15.438 35.7951 15.438 35.872 15.438C35.872 15.5931 35.7951 15.6862 35.6411 15.6862C35.6411 15.6086 35.6411 15.5155 35.6257 15.438ZM35.8566 26.5936C35.8566 26.5936 35.7951 26.5936 35.7489 26.5936C35.7489 26.516 35.7489 26.4229 35.7489 26.3453C35.7951 26.3453 35.8412 26.3453 35.8874 26.3453C35.8874 26.4229 35.8874 26.516 35.872 26.5936H35.8566ZM35.8566 26.2057C35.6822 26.1643 35.6411 26.0764 35.7335 25.9419C35.7335 25.9419 35.8104 25.9419 35.8566 25.9574C35.8566 26.035 35.8566 26.1281 35.8566 26.2057ZM36.611 25.5696C36.611 25.5696 36.534 25.5696 36.5033 25.5851L36.4725 25.554L36.5033 25.5851C36.5033 25.5851 36.5033 25.6626 36.5033 25.6937C36.5033 25.8643 36.4109 25.9574 36.2415 25.9574C36.2415 25.9109 36.2415 25.8643 36.2415 25.8178C36.3031 25.8178 36.3493 25.8178 36.3339 25.7247C36.3339 25.7092 36.2723 25.6937 36.2415 25.6937C36.2415 25.6161 36.2415 25.5385 36.2415 25.4609C36.1953 25.4609 36.1645 25.4609 36.1184 25.4454C36.1184 25.3989 36.1184 25.3679 36.1184 25.3213H36.0722C36.0722 25.3213 36.1799 25.2282 36.2261 25.1817C36.2261 25.2127 36.2261 25.2437 36.2569 25.2903C36.3493 25.3058 36.4417 25.3368 36.5033 25.4299C36.534 25.4299 36.5802 25.4454 36.611 25.4454C36.611 25.492 36.611 25.523 36.611 25.5696ZM36.842 19.4099H36.7958H36.7496C36.7496 19.3323 36.7342 19.2393 36.7188 19.1617C36.765 19.1617 36.8112 19.1617 36.8574 19.1617C36.8574 19.2393 36.842 19.3323 36.8266 19.4099H36.842ZM36.6264 5.70979C36.7034 5.70979 36.7958 5.70979 36.8728 5.70979C36.8728 5.75634 36.8728 5.80288 36.8728 5.83391C36.765 5.84943 36.6572 5.83391 36.6264 5.70979ZM37.1191 22.1251C37.1191 22.1251 37.1191 22.2027 37.1191 22.2337C36.9343 22.2648 36.8574 22.1717 36.8882 22.001C36.9189 22.001 36.9651 22.001 36.9959 22.001C37.0421 22.0475 37.0883 22.0941 37.1345 22.1251H37.1191ZM37.3808 10.3334C37.3038 10.3334 37.2115 10.3334 37.1345 10.3179C37.1345 10.2868 37.1345 10.2403 37.1345 10.2093C37.2115 10.2093 37.3038 10.2093 37.3808 10.2093C37.3808 10.2093 37.3808 10.3024 37.3808 10.3334ZM37.8735 15.5931H37.8119H37.7503C37.7041 15.5466 37.6579 15.5155 37.6118 15.469C37.6118 15.469 37.6118 15.3759 37.6118 15.3294C37.6579 15.3294 37.6887 15.3294 37.7349 15.3294C37.7811 15.3294 37.8119 15.3294 37.8581 15.3294C37.8581 15.4069 37.8581 15.5 37.8581 15.5776L37.8735 15.5931ZM38.2738 10.3334C38.2738 10.2558 38.2738 10.1627 38.2738 10.0851C38.3046 10.0851 38.3508 10.0851 38.3815 10.0851C38.3815 10.1627 38.3815 10.2558 38.3815 10.3334C38.3815 10.3334 38.3046 10.3334 38.2584 10.3334H38.2738ZM38.5047 13.0176C38.5047 13.0176 38.4431 13.0176 38.4123 13.0176C38.4123 12.94 38.4123 12.8469 38.3969 12.7693C38.4431 12.7693 38.4893 12.7693 38.5201 12.7693C38.5201 12.8624 38.5201 12.94 38.5047 13.0331V13.0176ZM39.1513 15.438C39.1513 15.438 39.1513 15.3604 39.1513 15.3294C39.2437 15.3294 39.3207 15.3294 39.4131 15.3294C39.3823 15.5 39.2745 15.469 39.1667 15.438H39.1513ZM39.4592 16.3534H39.3977C39.3977 16.2603 39.3977 16.1827 39.3977 16.1051C39.4285 16.1051 39.4746 16.1051 39.5054 16.1051C39.5054 16.1827 39.5054 16.2758 39.5054 16.3534H39.4439H39.4592ZM40.2598 7.36994C40.2598 7.36994 40.2752 7.29237 40.2752 7.24582C40.3214 7.24582 40.3522 7.24582 40.3984 7.24582C40.4908 7.30788 40.5524 7.38546 40.4292 7.47855C40.3522 7.5251 40.2906 7.47855 40.2444 7.38546L40.2598 7.36994ZM40.4138 13.2658C40.4138 13.1882 40.4138 13.0951 40.4138 13.0176C40.46 13.0176 40.4908 13.0176 40.537 13.0176C40.537 13.0176 40.537 13.0951 40.5524 13.1417C40.5062 13.1882 40.46 13.2193 40.4292 13.2658H40.4138ZM40.537 12.8779C40.537 12.8779 40.537 12.8003 40.537 12.7538C40.5677 12.7693 40.5985 12.7848 40.6293 12.8159C40.5985 12.8314 40.5677 12.8624 40.537 12.8779ZM40.7833 8.26984C40.7063 8.26984 40.6139 8.26984 40.537 8.26984C40.537 8.23881 40.537 8.19226 40.537 8.16123C40.6139 8.16123 40.7063 8.16123 40.7833 8.16123C40.7833 8.20778 40.7833 8.23881 40.7833 8.28535V8.26984Z" fill="#F0E74D"/>
<path d="M28.559 17.2378C28.559 17.2378 28.559 17.1757 28.559 17.1447C28.6206 17.1447 28.6822 17.1447 28.7437 17.1447L28.4358 0.946603H20.0913L20.584 6.23737C20.584 6.23737 20.5994 6.23737 20.6148 6.23737C20.5994 6.2684 20.5994 6.28391 20.5994 6.31494L22.1082 22.3734C22.1082 22.3734 22.2005 22.42 22.2159 22.482H22.1236L22.4315 25.6937H22.5084C22.5084 25.6937 22.5392 25.6472 22.57 25.6161C22.5854 25.6472 22.6162 25.6782 22.6316 25.7092C22.6008 25.7092 22.5854 25.7092 22.5546 25.7092L28.9593 26.4229L28.7745 17.2533C28.7745 17.2533 28.6514 17.2533 28.5744 17.2378H28.559ZM20.4762 2.38954C20.4762 2.38954 20.3838 2.38954 20.353 2.38954C20.353 2.38954 20.353 2.29645 20.353 2.26542C20.3992 2.26542 20.43 2.26542 20.4762 2.26542C20.4762 2.31196 20.4762 2.35851 20.4762 2.38954ZM21.7541 14.414C21.7541 14.3364 21.7541 14.2588 21.7541 14.1813C21.831 14.1813 21.9234 14.1813 22.0004 14.1968C22.0004 14.1968 22.0004 14.2588 22.0004 14.3054C21.9542 14.3519 21.908 14.3985 21.8618 14.445C21.831 14.445 21.8002 14.445 21.7695 14.4295L21.7541 14.414ZM21.8618 18.1532C21.8618 18.1532 21.8618 18.0601 21.8618 18.0291C21.9388 18.0291 22.0312 18.0291 22.1082 18.0291C22.1082 18.0756 22.1082 18.1067 22.1082 18.1532C22.0312 18.1532 21.9388 18.1532 21.8618 18.1532ZM22.1082 18.2773C22.1082 18.2773 22.062 18.3239 22.0466 18.3394C22.0466 18.3394 22.0466 18.3084 22.0466 18.2929C22.0466 18.2929 22.0774 18.2773 22.0928 18.2773H22.1082ZM22.1082 17.7653C22.0312 17.7653 21.9388 17.7653 21.8618 17.7653C21.8618 17.7343 21.8618 17.6878 21.8618 17.6567C21.9388 17.6567 22.0312 17.6567 22.1082 17.6567C22.1082 17.7033 22.1082 17.7343 22.1082 17.7809V17.7653ZM22.5546 22.6992C22.4777 22.7768 22.4161 22.7148 22.3699 22.6372C22.4161 22.5906 22.4469 22.5441 22.4931 22.5131C22.57 22.5596 22.6316 22.6217 22.5546 22.6992ZM22.3853 12.3039C22.3853 12.3039 22.4469 12.2729 22.4931 12.2418C22.4931 12.2729 22.4931 12.3194 22.4931 12.3504C22.4623 12.3349 22.4315 12.3194 22.4007 12.2884L22.3853 12.3039ZM22.6008 3.52217C22.4161 3.52217 22.3391 3.4601 22.3545 3.27392C22.4315 3.27392 22.5238 3.27392 22.6008 3.28943C22.6008 3.36701 22.6008 3.44459 22.6008 3.52217ZM28.2203 8.93705C28.2203 8.93705 28.2819 8.93705 28.2973 8.93705C28.3281 8.95257 28.3589 8.95257 28.3896 8.93705C28.3896 9.01463 28.4204 9.09221 28.4204 9.16978C28.3435 9.16978 28.2665 9.16978 28.1895 9.16978C28.1895 9.09221 28.2049 9.01463 28.2203 8.93705ZM28.2049 12.7849C28.2049 12.7849 28.2665 12.7849 28.2819 12.7849C28.2819 12.8625 28.2819 12.94 28.2973 13.0176C28.1433 12.9866 28.1741 12.878 28.1895 12.7694L28.2049 12.7849ZM27.6814 9.30942C27.6814 9.30942 27.6814 9.387 27.6814 9.43355C27.5737 9.387 27.5737 9.35597 27.6814 9.30942ZM27.5429 14.957C27.5429 14.957 27.5429 15.0967 27.5429 15.1587C27.5121 15.1587 27.4813 15.1587 27.4659 15.1898C27.4351 15.0812 27.3889 14.9726 27.5583 14.957H27.5429ZM27.5429 18.6652H27.4813H27.4197C27.4197 18.6187 27.4197 18.5877 27.4197 18.5411C27.4967 18.5411 27.5275 18.5877 27.5429 18.6652ZM23.7247 16.9275C23.7247 16.9275 23.6631 16.974 23.6477 16.9896C23.6477 16.943 23.6477 16.912 23.6477 16.8654C23.6785 16.881 23.7093 16.8965 23.7401 16.9275H23.7247ZM22.7394 12.5056C22.7394 12.428 22.7548 12.3349 22.7702 12.2574C22.801 12.2574 22.8318 12.2574 22.8626 12.2574C22.8626 12.366 22.8933 12.4746 22.7394 12.5056ZM22.8626 21.9855H22.801H22.7394C22.7394 21.908 22.7856 21.8769 22.8626 21.8614C22.8626 21.8924 22.8626 21.939 22.8626 21.97V21.9855ZM22.6162 4.93407C22.6162 4.93407 22.6162 4.85649 22.6162 4.80995C22.6932 4.80995 22.7856 4.80995 22.8626 4.80995C22.8626 4.85649 22.8626 4.88752 22.8626 4.93407C22.7856 4.93407 22.6932 4.93407 22.6162 4.93407ZM23.1089 18.7738C23.1089 18.7738 23.0319 18.7738 23.0011 18.7738C23.0011 18.6963 23.0011 18.6032 23.0011 18.5256C23.1551 18.5566 23.1243 18.6652 23.1089 18.7738ZM23.0011 13.902C23.0011 13.902 22.9241 13.8089 22.8779 13.7779C22.9241 13.6693 23.0319 13.6537 23.1397 13.6537C23.1397 13.7624 23.1243 13.8554 23.0165 13.9175L23.0011 13.902ZM23.1397 2.99464C23.1397 2.91706 23.1397 2.82397 23.1397 2.74639C23.1859 2.74639 23.2167 2.74639 23.2628 2.74639C23.2628 2.83949 23.2628 2.91706 23.2628 3.01016C23.2167 3.01016 23.1859 3.01016 23.1397 3.01016V2.99464ZM23.6323 20.1857C23.6323 20.1857 23.5554 20.0927 23.5092 20.0461C23.6016 19.8754 23.7401 19.922 23.8787 19.922C23.8787 19.9996 23.8787 20.0927 23.8787 20.1702C23.7863 20.1702 23.7093 20.1702 23.6169 20.1702L23.6323 20.1857ZM23.8941 12.6142C23.8941 12.6142 23.971 12.6142 24.0172 12.6142C24.0172 12.6608 24.0172 12.6918 24.0172 12.7383C23.9557 12.7228 23.9095 12.6763 23.8941 12.6142ZM24.1404 23.3819C24.0634 23.3354 24.0018 23.2578 24.0788 23.1802C24.1558 23.1026 24.2328 23.1647 24.2636 23.2423C24.2174 23.2888 24.1712 23.3199 24.1404 23.3664V23.3819ZM24.3713 6.70283C24.3713 6.70283 24.2944 6.70283 24.2636 6.70283C24.2636 6.88902 24.1866 6.96659 24.0172 6.95108C23.971 6.8735 23.9403 6.78041 23.8941 6.70283C23.8941 6.70283 23.9864 6.62525 24.0326 6.57871C24.0634 6.57871 24.1096 6.57871 24.1404 6.57871C24.1866 6.62525 24.2174 6.65628 24.2636 6.70283C24.2636 6.62525 24.2636 6.53216 24.2636 6.45458C24.3098 6.45458 24.3405 6.45458 24.3867 6.45458C24.3867 6.53216 24.3867 6.62525 24.3867 6.70283H24.3713ZM24.3713 15.1743C24.3713 15.0812 24.3713 15.0036 24.3713 14.9105C24.4021 14.9105 24.4483 14.9105 24.4791 14.9105C24.4791 14.9881 24.4791 15.0812 24.4791 15.1587C24.4329 15.1587 24.3867 15.1587 24.3559 15.1587L24.3713 15.1743ZM24.6331 20.8064C24.6741 20.6305 24.7614 20.5891 24.8948 20.6822C24.8486 20.7908 24.7408 20.8064 24.6331 20.8064ZM24.7562 14.1192C24.7562 14.1192 24.6639 14.0416 24.6177 14.0106C24.6177 13.933 24.6177 13.8399 24.6023 13.7624H24.6177C24.6177 13.7624 24.71 13.6693 24.7562 13.6382C24.8024 13.6382 24.8332 13.6382 24.8794 13.6382C24.8794 13.6848 24.8794 13.7158 24.8794 13.7624C24.9256 13.8865 25.018 13.9951 25.0026 14.1347C24.9256 14.1347 24.8332 14.1347 24.7562 14.1347V14.1192ZM25.0026 9.65076C24.9256 9.65076 24.8332 9.65076 24.7562 9.65076C24.7562 9.60422 24.7562 9.57319 24.7562 9.52664C24.8332 9.52664 24.9256 9.52664 25.0026 9.52664C25.0026 9.57319 25.0026 9.60422 25.0026 9.65076ZM25.1411 7.4786C25.1411 7.4786 25.2181 7.4786 25.2489 7.4786C25.2489 7.55618 25.2489 7.63376 25.2489 7.72685C25.0949 7.69582 25.1103 7.58721 25.1257 7.4786H25.1411ZM25.1873 24.1112C25.1873 24.1112 25.1565 24.0491 25.1411 24.0181C25.1873 24.0181 25.2181 24.0181 25.2643 24.0181C25.2643 24.0646 25.2643 24.1267 25.1873 24.1112ZM25.2643 14.9105C25.3413 14.9105 25.4336 14.9105 25.5106 14.9105C25.4798 15.0657 25.3721 15.0501 25.2643 15.0346C25.2643 14.9881 25.2643 14.957 25.2643 14.9105ZM25.3875 22.0786C25.3875 22.0786 25.2797 22.0321 25.2643 21.9545C25.3105 21.9545 25.3413 21.9545 25.3875 21.9545C25.3875 22.001 25.3875 22.0321 25.3875 22.0786ZM25.5106 22.9785C25.5106 22.9785 25.4336 22.9785 25.3875 22.9785C25.3875 22.8854 25.4336 22.8544 25.5106 22.8544C25.5106 22.9009 25.5106 22.932 25.5106 22.9785ZM25.3875 20.4185C25.3875 20.3409 25.3875 20.2478 25.3875 20.1702C25.4183 20.1702 25.4644 20.1702 25.4952 20.1702C25.4952 20.2478 25.4952 20.3409 25.4952 20.4185C25.449 20.4185 25.4029 20.4185 25.3567 20.4185H25.3875ZM25.6954 14.5847C25.6184 14.5071 25.6954 14.4295 25.757 14.3985C25.8031 14.445 25.8339 14.4916 25.8801 14.5226C25.8339 14.6002 25.757 14.6622 25.6954 14.5847ZM26.1265 16.5862C26.1419 16.6948 26.1419 16.8034 26.0187 16.8499C25.9879 16.8344 25.9571 16.8189 25.9109 16.8189C25.9109 16.8189 25.9109 16.7413 25.8955 16.7103C25.9417 16.6637 25.9725 16.6172 26.0187 16.5706C26.0649 16.5706 26.0957 16.5706 26.1419 16.5862H26.1265ZM26.2496 14.1502C26.2034 14.2278 26.1572 14.3054 26.1111 14.3985H26.0803H26.0495C26.0495 14.3209 26.0341 14.2433 26.0187 14.1502C26.0957 14.1502 26.1726 14.1502 26.265 14.1502H26.2496ZM26.7731 10.5662C26.7269 10.5662 26.6961 10.5662 26.6499 10.5662C26.6499 10.5196 26.6499 10.4886 26.6499 10.442C26.6961 10.442 26.7269 10.442 26.7731 10.442C26.7731 10.3645 26.7731 10.2869 26.7885 10.2093C26.8193 10.2093 26.8501 10.2093 26.8809 10.2093C26.8809 10.3179 26.927 10.4265 26.7731 10.4576C26.7731 10.5041 26.7731 10.5351 26.7731 10.5817C26.8193 10.6127 26.8809 10.6282 26.9116 10.6748C26.9578 10.7213 26.9578 10.7989 26.8809 10.8144C26.8501 10.8144 26.8039 10.7834 26.7885 10.7524C26.7731 10.6903 26.7885 10.6438 26.7731 10.5817V10.5662ZM26.9578 25.942H26.8962C26.8962 25.942 26.9424 25.8799 26.9578 25.8489C26.9732 25.8799 27.004 25.9109 27.0194 25.942H26.9578ZM26.8962 11.5592C26.8962 11.5592 26.8963 11.4816 26.8655 11.435C26.9116 11.2954 27.0348 11.3264 27.1426 11.3264C27.1888 11.404 27.235 11.4816 27.2657 11.5747C27.1888 11.5747 27.0964 11.5747 27.0194 11.5902C26.9732 11.5902 26.9424 11.5592 26.8962 11.5592ZM27.158 12.4746C27.158 12.397 27.158 12.3039 27.158 12.2263C27.2042 12.2263 27.235 12.2263 27.2811 12.2263C27.2811 12.3039 27.2811 12.397 27.2811 12.4746C27.2504 12.4746 27.2196 12.4746 27.1734 12.4746H27.158ZM27.5275 24.5301C27.4505 24.5301 27.3581 24.5301 27.2811 24.5301C27.2811 24.4835 27.2811 24.437 27.2811 24.4059C27.3735 24.4059 27.4659 24.4059 27.5583 24.3904C27.5583 24.437 27.5583 24.4835 27.5429 24.5456L27.5275 24.5301ZM27.6506 21.97H27.5891H27.5275C27.5275 21.9235 27.5275 21.8924 27.5275 21.8459C27.5737 21.8459 27.6045 21.8459 27.6506 21.8459C27.6506 21.8924 27.6506 21.9235 27.6506 21.97ZM27.8816 14.5226C27.8816 14.5226 27.8046 14.5226 27.7738 14.5226C27.7738 14.445 27.7738 14.3209 27.8354 14.3209C27.9124 14.3209 27.897 14.4295 27.897 14.5071L27.8816 14.5226ZM27.8508 1.90856C27.6814 1.92408 27.7738 1.78444 27.7738 1.70686C27.82 1.70686 27.8508 1.70686 27.897 1.70686C27.897 1.78444 27.9586 1.89304 27.8662 1.90856H27.8508ZM28.0201 23.506C28.0201 23.506 28.0971 23.506 28.1433 23.506C28.0971 23.6147 28.0663 23.6147 28.0201 23.506ZM28.3896 21.458C28.3127 21.458 28.2203 21.458 28.1433 21.458C28.2203 21.3029 28.3127 21.3184 28.3896 21.458ZM28.3896 21.97C28.3896 21.8769 28.3896 21.7994 28.405 21.7218C28.4666 21.7218 28.5282 21.7218 28.5898 21.7373C28.6822 21.97 28.559 21.9855 28.3742 21.97H28.3896Z" fill="#F0E74D"/>
<path d="M18.9524 31.4967C18.9524 31.3105 19.014 31.2019 19.2142 31.2329C19.2142 31.2795 19.2142 31.326 19.2142 31.3725L21.8314 28.5177L20.0301 16.9432L11.8704 17.9207L16.4737 34.3515L19.091 31.4812C19.091 31.4812 18.9832 31.4812 18.937 31.4812L18.9524 31.4967ZM19.3373 30.2089C19.2603 30.2089 19.168 30.2089 19.091 30.2089C19.091 30.1003 19.091 30.0072 19.2142 29.9606C19.2603 30.0072 19.3065 30.0382 19.3527 30.0848C19.3527 30.1313 19.3527 30.1623 19.3527 30.2089H19.3373ZM19.9685 30.0692C19.9685 30.0692 19.9685 30.0072 19.9685 29.9606C20.0763 29.9451 20.1995 29.9141 20.2149 30.0848C20.1379 30.0848 20.0455 30.0848 19.9685 30.0848V30.0692ZM20.7229 27.3851C20.7229 27.3851 20.7999 27.3851 20.8461 27.3851C20.8461 27.4627 20.8461 27.5557 20.8461 27.6333H20.7845H20.7229C20.7229 27.5402 20.7229 27.4627 20.7229 27.3851ZM20.338 23.2735C20.338 23.2735 20.415 23.2735 20.4612 23.2735C20.4612 23.3511 20.4612 23.4442 20.4612 23.5217C20.3688 23.5217 20.2765 23.5217 20.1841 23.5217C20.1071 23.5217 20.0763 23.4752 20.0609 23.4131C20.1687 23.4131 20.2611 23.3666 20.3227 23.258L20.338 23.2735ZM20.0763 29.5572H20.0147H19.9532C19.9839 29.4486 20.0301 29.4486 20.0763 29.5572ZM19.5067 28.9676L19.5529 28.9987H19.5067V28.9676ZM19.0756 23.9251C19.0756 23.9251 19.0756 23.8476 19.0756 23.8165C19.1526 23.8165 19.2449 23.8165 19.3219 23.8165C19.3219 23.8165 19.3219 23.8941 19.3219 23.9406C19.3219 23.9406 19.2296 24.0337 19.1834 24.0803C19.1372 24.0803 19.1064 24.0803 19.0602 24.0803C19.0602 24.0337 19.0602 24.0027 19.0602 23.9562L19.0756 23.9251ZM12.6248 20.2014C12.594 20.1859 12.5632 20.1704 12.5324 20.1549C12.6248 20.0773 12.6094 20.1549 12.6248 20.2014ZM13.4561 19.6894H13.3945C13.3945 19.6894 13.4099 19.5963 13.4407 19.5963C13.5177 19.5808 13.5177 19.6429 13.5177 19.6894H13.4561ZM14.0258 21.3341C13.9796 21.2565 13.918 21.1789 13.8718 21.1013C14.0052 21.0082 14.1028 21.0548 14.1643 21.241C14.1643 21.241 14.072 21.303 14.0258 21.3496V21.3341ZM16.0426 30.7209C15.9656 30.7209 15.8733 30.7209 15.7963 30.7209C15.7963 30.6743 15.7963 30.6433 15.7963 30.5968C15.8733 30.5968 15.9656 30.5968 16.0426 30.5968C16.0426 30.6433 16.0426 30.6899 16.0426 30.7364V30.7209ZM17.69 29.4331C17.69 29.5107 17.69 29.6038 17.69 29.6814C17.6438 29.6814 17.613 29.6814 17.5668 29.6814C17.5668 29.5883 17.5668 29.5107 17.5668 29.4176C17.613 29.4176 17.6592 29.4176 17.69 29.4176V29.4331ZM16.797 25.3215C16.797 25.3215 16.72 25.337 16.6738 25.3526C16.6277 25.3526 16.5969 25.3526 16.5507 25.337C16.5507 25.2905 16.5507 25.2595 16.5507 25.2129C16.6277 25.2129 16.72 25.2129 16.797 25.2129C16.797 25.2439 16.797 25.2905 16.797 25.3215ZM17.3051 32.6448C17.3051 32.6448 17.3821 32.6448 17.4282 32.6448C17.3821 32.7534 17.3513 32.7534 17.3051 32.6448ZM17.69 30.9847C17.613 30.9847 17.5206 30.9847 17.4436 30.9536C17.4436 30.9226 17.4436 30.9071 17.4436 30.876C17.5206 30.876 17.613 30.845 17.69 30.845C17.69 30.845 17.69 30.9381 17.69 30.9847ZM18.5675 23.1649C18.5675 23.1649 18.5675 23.2425 18.5675 23.289C18.4906 23.289 18.3982 23.289 18.3212 23.289C18.3212 23.2425 18.3212 23.1959 18.3212 23.1649C18.3982 23.1649 18.4906 23.1649 18.5675 23.1649C18.5675 23.0873 18.5675 22.9942 18.5675 22.9166C18.6753 22.9632 18.6907 23.0563 18.6907 23.1649C18.6445 23.1649 18.6137 23.1649 18.5675 23.1649Z" fill="#F0E74D"/>
<path d="M7.22063 9.09242L0 11.0318L3.35628 18.7741C3.35628 18.7741 3.37168 18.712 3.38707 18.712C3.44866 18.6965 3.49484 18.712 3.51024 18.7896C3.51024 18.8206 3.47945 18.8671 3.46405 18.8827C3.41787 18.8827 3.40247 18.8516 3.38707 18.8206L6.42005 25.8181L12.9171 25.7094L7.22063 9.09242ZM1.26245 13.6695C1.26245 13.6695 1.26245 13.5919 1.26245 13.5609C1.30864 13.5609 1.33943 13.5609 1.38562 13.5609C1.38562 13.6384 1.33943 13.685 1.26245 13.685V13.6695ZM2.97139 11.2335H2.9098C2.9098 11.187 2.9098 11.156 2.9098 11.1094C2.98678 11.1094 3.03297 11.156 3.03297 11.2335H2.97139ZM3.15614 10.9698C3.01758 10.9388 3.00218 10.8457 3.03297 10.7215C3.07916 10.7215 3.12535 10.7215 3.17153 10.7215C3.17153 10.7991 3.17153 10.8767 3.17153 10.9698H3.15614ZM4.29543 12.149C4.20305 12.149 4.15686 12.18 4.17226 12.2731C4.14147 12.3041 4.09528 12.3041 4.04909 12.2731C4.04909 12.2731 4.04909 12.1645 4.04909 12.1179C4.12607 12.0093 4.21845 11.9628 4.35701 11.9783C4.35701 12.0093 4.35701 12.0404 4.37241 12.0714C4.4032 12.0869 4.43399 12.1024 4.46478 12.1179C4.46478 12.149 4.46478 12.1955 4.46478 12.2265C4.41859 12.2265 4.3878 12.2265 4.34161 12.2265C4.34161 12.1955 4.34161 12.149 4.34161 12.1179L4.29543 12.149ZM4.29543 16.6174C4.29543 16.6174 4.29543 16.5398 4.29543 16.4933C4.37241 16.4933 4.46478 16.4933 4.54176 16.4933C4.49557 16.6174 4.4032 16.6174 4.29543 16.6174ZM6.06594 19.9532C6.06594 19.9532 6.14292 19.9532 6.18911 19.9532C6.14292 20.0773 6.11213 20.0463 6.06594 19.9532ZM6.97429 12.7075C6.97429 12.7075 6.97429 12.6765 6.9589 12.661C7.00509 12.661 7.03588 12.692 7.02048 12.723C7.02048 12.723 6.98969 12.723 6.97429 12.723V12.7075ZM7.20523 15.7175C7.20523 15.7175 7.11286 15.6244 7.08206 15.5779C7.08206 15.5468 7.08206 15.5003 7.08206 15.4693C7.25142 15.4537 7.34379 15.5313 7.3284 15.7175C7.29761 15.7175 7.25142 15.7175 7.22063 15.7175H7.20523ZM7.313 25.4612C7.313 25.3681 7.3284 25.244 7.46696 25.2595C7.55933 25.2595 7.55933 25.3681 7.55933 25.4612C7.46696 25.4612 7.38998 25.4612 7.29761 25.4612H7.313ZM9.08352 22.0013C9.08352 21.9237 9.08352 21.8461 9.08352 21.7685C9.11431 21.7685 9.1451 21.7685 9.17589 21.7685C9.17589 21.8461 9.19129 21.9237 9.20668 22.0168H9.08352V22.0013ZM11.4853 24.7009C11.4853 24.7009 11.4853 24.7785 11.4853 24.8096C11.3775 24.763 11.3775 24.732 11.4853 24.7009Z" fill="#F0E74D"/>
<path d="M98.2406 32.1938C98.2406 32.1938 98.2253 32.0547 98.21 31.9774C98.3633 32.0238 98.302 32.1011 98.2406 32.1938Z" fill="#F0E74D"/>
<path d="M125.938 32.1172C125.938 32.1172 126.09 32.1017 126.151 32.0862C126.151 32.1326 126.151 32.1635 126.151 32.2099C126.075 32.2099 125.998 32.1944 125.938 32.179C125.938 32.1635 125.938 32.1326 125.938 32.1172Z" fill="#F0E74D"/>
<path d="M164.273 32.1947C164.273 32.1947 164.365 32.1947 164.35 32.2565C164.35 32.2719 164.304 32.2873 164.273 32.3028C164.273 32.2719 164.273 32.2256 164.273 32.1947Z" fill="#F0E74D"/>
<path d="M101.135 31.9769H101.089H101.043C101.043 31.9306 101.043 31.8843 101.104 31.8998C101.119 31.8998 101.135 31.9461 101.135 31.9769Z" fill="#F0E74D"/>
<path d="M56.21 39.5802C56.21 39.5802 56.21 39.6113 56.21 39.6269C56.1951 39.8292 56.21 39.7358 56.21 39.5802Z" fill="#F0E74D"/>
<path d="M80.9823 40.9142L79.9661 41.6124L79.4119 41.4573L79.104 41.7676L77.7645 41.69L75.9324 41.5348L75.4244 41.2556L74.0541 41.0073L73.6231 40.7746L73.5769 40.4953L72.8687 40.4332L72.8225 39.8747L72.2682 40.0143L71.714 39.8902L70.821 39.2696L70.0974 38.8507L69.4046 38.1369L68.8966 37.7335L67.9574 36.1665L67.0645 35.8717L66.9875 35.2666L66.7104 34.7546L66.4794 34.0098L65.3401 32.4428L65.2478 30.7361L65.1246 30.674L65.3555 30.5654L65.5711 30.7051L66.2639 30.3327L67.0645 30.5344C67.28 30.3172 67.3878 30.1465 67.434 30.0069L67.7419 30.2551L68.1576 29.9603L68.2807 29.9138L69.1737 30.3017L70.0666 29.3397C70.0666 29.3397 70.1282 29.2931 70.159 29.2931C70.2976 29.1845 70.4823 29.138 70.6979 29.107L70.898 29.0759L71.2213 28.9518L72.1451 28.6105L72.4376 28.2846C73.0534 28.145 73.5769 27.9123 73.9772 27.6175L74.1773 27.5089L75.178 27.3072L76.7022 25.4453C77.0409 25.0264 77.2411 24.5454 77.3027 24.0024L77.3335 23.8007C77.0871 22.7767 76.3173 21.8768 75.0087 21.0855L74.67 20.7597H73.8078L72.6685 20.4028L69.8973 19.6891V19.8132L69.5124 19.8598L69.3738 19.6581L67.9266 19.8287L66.4486 19.7822L63.4157 20.108L61.1525 20.077L59.6283 20.4493L58.4582 20.3873L57.7962 20.7131L57.4883 20.0459L56.3952 20.1701C55.533 20.2632 54.9942 20.651 54.7632 21.3027L53.393 21.4579L51.9458 21.7526L51.0682 22.4819C50.7295 22.9628 50.5602 23.3818 50.6064 23.7541C50.6371 24.1731 50.8835 24.5299 51.3454 24.8402C51.8688 25.0109 52.2845 25.2281 52.5462 25.5074C52.6232 25.5539 52.6848 25.6315 52.731 25.6936L52.7772 25.6315L53.6085 24.4834L54.5939 24.3748L54.9172 25.7091L54.7786 26.4693L55.3175 28.0519V28.4708L55.1635 28.657L55.3483 29.3397L55.1019 30.2086C55.4098 30.6275 55.5638 30.8912 55.5638 30.9378C55.5638 30.9843 55.456 31.2326 55.2251 31.636L55.2713 32.0859C55.3021 32.4117 55.3175 32.6445 55.3175 32.7996C55.3483 33.0634 55.4098 33.3116 55.5022 33.5133C55.3021 33.9788 55.2097 34.3512 55.2251 34.6149C55.2559 34.8166 55.3483 34.9718 55.5176 35.127C55.4098 35.4683 55.3791 35.7476 55.3791 35.9648C55.3791 36.1355 55.4406 36.3216 55.5484 36.5233L56.2104 38.5559L56.4106 38.9593L56.3182 41.1625C58.0425 40.9608 58.8893 40.5108 58.8123 39.7971L58.7815 39.4713L59.0125 37.8577L58.8893 37.5318L58.3966 35.127L58.335 34.3046C58.2889 33.8081 58.2735 33.4513 58.2427 33.2341C58.1965 32.6135 58.2119 31.9773 58.335 31.3567L58.5198 30.2551L58.2735 29.2001L58.6276 28.5794C58.3197 28.2381 58.1503 27.8347 58.1195 27.4003C58.1195 27.152 58.1195 26.9038 58.1657 26.64L58.1041 24.5765C58.1041 24.5765 58.1041 24.4989 58.1041 24.4058C58.0579 24.3592 58.0579 24.3127 58.0425 24.2506C58.0425 24.142 58.0425 23.9869 58.0887 23.7541L58.3812 23.7076L58.9663 23.3973L59.305 23.4749L59.9054 23.1335L60.4135 23.1801L61.0601 23.0249L61.7529 23.149L63.077 22.7767H64.3394L64.6935 22.6681L65.2786 22.7146L65.4325 22.6681L65.5557 22.6991L67.8804 22.5905H68.2961L69.1121 22.4974L69.6817 22.9163L70.2514 22.8698L71.129 23.1025L71.6524 23.0404C71.9603 23.087 72.2067 23.1801 72.376 23.3197L72.6223 23.4593L73.038 23.4904L74.1157 24.2817C74.2543 24.3748 74.3467 24.4834 74.3467 24.592C74.3467 24.6695 74.2235 24.8092 73.9618 24.9643L72.8225 25.4763L72.4068 25.8487L72.2528 25.8798L71.8987 26.1125L71.5908 26.2676C71.0828 26.4383 70.7133 26.5779 70.5131 26.6866L70.313 26.7952L70.1436 26.7641L69.0197 27.0124L68.1422 27.2761L67.6341 27.5864C67.0491 27.7881 66.3255 27.9433 65.4633 28.0364C64.8167 28.114 64.324 28.145 64.0007 28.114L64.0315 28.3622C63.3541 28.5174 62.8152 28.6105 62.4149 28.6725C61.9992 28.7191 61.7837 28.6725 61.7375 28.5019L61.1679 28.5639C61.0755 28.4863 61.0293 28.4088 61.0293 28.3312V28.2536L59.9054 28.5019C59.5513 28.9053 59.3204 29.4018 59.2126 29.9758L58.8893 30.4258C59.0433 31.2326 59.2126 31.667 59.3974 31.7136C59.5975 31.7601 59.7823 31.7601 59.9362 31.7601C60.0902 31.7601 60.2595 31.698 60.4135 31.6205L60.5366 31.5739H60.8292L61.2756 31.9773L61.5066 32.1635L62.4149 33.7926L63.2617 34.9718C63.4464 35.3907 63.7698 35.8251 64.247 36.2596C64.3702 36.8647 64.6627 37.3922 65.14 37.8422C65.5865 38.3076 66.0483 38.7421 66.4948 39.1455C66.5564 39.192 66.6796 39.3782 66.8489 39.704C67.0183 40.0298 67.203 40.2315 67.4186 40.2936L67.5725 40.3401L67.8035 40.8366L68.2653 40.9608C68.5886 41.1935 68.9427 41.4262 69.3122 41.6434C69.6048 41.7986 69.8357 41.9537 70.0359 42.0624L70.2052 42.4502L71.8987 42.9312C71.8987 42.9312 71.9603 43.0243 72.0373 43.1329C72.0989 43.2415 72.1759 43.3346 72.222 43.4432H72.4838L72.8687 44.1414L73.777 43.6604C74.008 43.8466 74.1927 44.0328 74.3159 44.25L75.2242 43.9397L75.4398 43.9087L76.4713 44.4517L77.3489 44.4052L78.288 44.5448L78.7961 44.1259L79.0116 44.2655C80.5358 43.7535 81.321 43.3657 81.3979 43.1019L81.4287 42.8847C81.5519 42.4813 81.3979 41.8607 80.9823 40.9608V40.9142ZM76.0094 25.647C76.0094 25.647 76.0094 25.7091 76.0094 25.7401C75.9632 25.7401 75.917 25.7401 75.9478 25.678C75.9478 25.678 75.994 25.647 76.0094 25.647ZM57.011 29.0759C57.011 28.9984 57.011 28.9208 57.011 28.8432C57.0572 28.8742 57.1034 28.9053 57.1496 28.9518C57.1188 29.0139 57.088 29.0759 57.011 29.0759ZM57.7038 24.2351C57.7038 24.2351 57.6422 24.1886 57.6114 24.1886C57.6422 24.1886 57.6576 24.1575 57.7038 24.142V24.2351ZM60.0748 21.7216C60.0748 21.7216 60.0286 21.6751 59.9824 21.6751C60.0286 21.6751 60.044 21.644 60.0748 21.6285V21.7371V21.7216ZM60.1979 21.0234H60.0902V20.7907H60.1979V21.0234ZM60.5213 20.8993H60.4751C60.4751 20.8217 60.4751 20.7597 60.4443 20.6821C60.5828 20.7131 60.552 20.8062 60.5213 20.8993ZM61.5682 22.2802V22.1716C61.5682 22.1716 61.6451 22.1716 61.6759 22.1716C61.6759 22.2336 61.6451 22.2957 61.5682 22.2802ZM63.6004 21.4734C63.5234 21.4734 63.4618 21.4734 63.3695 21.4734V21.3803C63.4464 21.3803 63.5234 21.3803 63.6004 21.3803V21.5044V21.4734ZM64.478 21.6751C64.4164 21.5975 64.3702 21.5199 64.5242 21.4734L64.478 21.6751ZM66.2023 21.7061C66.2023 21.7061 66.2331 21.6596 66.2485 21.6285L66.2947 21.6751C66.2947 21.6751 66.2485 21.7061 66.2177 21.7216L66.2023 21.7061ZM66.3409 22.2491C66.3409 22.2491 66.3101 22.2491 66.2947 22.2181C66.3255 22.2181 66.3409 22.1871 66.3563 22.1716L66.4024 22.2181C66.4024 22.2181 66.3563 22.2491 66.3409 22.2491ZM70.6671 22.7456L70.6209 22.7146C70.6209 22.7146 70.6671 22.6215 70.7133 22.606C70.7133 22.606 70.7133 22.7301 70.6517 22.7456H70.6671ZM72.7609 22.637H72.6531C72.6531 22.637 72.6069 22.606 72.5608 22.606C72.5608 22.5594 72.53 22.5439 72.5146 22.4974V22.3733H72.5608H72.6069C72.6069 22.3733 72.6069 22.4664 72.6531 22.4819C72.7147 22.4819 72.7455 22.4508 72.7455 22.3888H72.7917H72.8379V22.4198C72.8687 22.5284 72.8071 22.5905 72.7147 22.6525L72.7609 22.637ZM73.6539 23.4128C73.5769 23.3662 73.5461 23.3197 73.5769 23.2421C73.5769 23.2421 73.6231 23.2111 73.6231 23.2421C73.7 23.2887 73.6693 23.3662 73.6693 23.4283L73.6539 23.4128ZM74.7778 25.2436C74.8085 25.3212 74.7316 25.3677 74.6854 25.3833C74.593 25.3367 74.5776 25.2436 74.5776 25.1505C74.6546 25.1505 74.747 25.104 74.7778 25.2281V25.2436ZM69.2507 28.0209V28.145C69.1737 28.145 69.1275 28.0985 69.1275 28.0209H69.2507ZM60.4289 28.9363C60.3211 28.8897 60.3057 28.7967 60.3057 28.7036C60.3827 28.7036 60.4443 28.7346 60.5213 28.7501V28.7967C60.5213 28.7967 60.4751 28.8897 60.4289 28.9363ZM63.1539 33.8702C63.1539 33.8702 63.1539 33.7771 63.2155 33.7926C63.2155 33.7926 63.2463 33.8392 63.2617 33.8702H63.1539ZM64.6165 29.4018C64.4934 29.3552 64.5088 29.2621 64.5242 29.169C64.6011 29.169 64.6781 29.169 64.7243 29.2621C64.6935 29.3087 64.6627 29.3397 64.6165 29.4018ZM72.299 40.8677C72.2067 40.8677 72.0989 40.8366 72.1297 40.728C72.1297 40.6504 72.2374 40.6504 72.3144 40.6504C72.3144 40.728 72.3144 40.7901 72.3144 40.8832L72.299 40.8677ZM74.6854 42.6985H74.5622C74.5622 42.6209 74.6084 42.5744 74.6854 42.5899V42.6985ZM76.0402 41.8917C75.917 41.9227 75.7785 41.8917 75.7015 42.0158C75.7015 42.0158 75.6245 41.9382 75.5783 41.9072C75.5783 41.8607 75.5783 41.8451 75.6091 41.7986C75.6707 41.7676 75.7939 41.7986 75.7939 41.6745C75.8247 41.6279 75.8247 41.5969 75.8401 41.5659C75.8709 41.5659 75.9016 41.5659 75.9478 41.5659C75.9478 41.6745 75.917 41.7831 76.071 41.7986C76.071 41.8296 76.071 41.8607 76.071 41.8917H76.0402ZM77.0563 44.2966C77.0563 44.2966 76.9947 44.2966 76.9794 44.25C76.9794 44.2035 77.0255 44.2035 77.0563 44.2035C77.0563 44.2345 77.0563 44.2655 77.0563 44.2966ZM76.9332 43.8466C77.0717 43.8777 77.0563 43.9863 77.0563 44.0794C76.9486 44.0328 76.9332 43.9552 76.9332 43.8466ZM79.2271 41.7831C79.2271 41.7831 79.2579 41.721 79.2733 41.69C79.3041 41.721 79.3195 41.752 79.3195 41.7831H79.2271ZM80.4742 42.714C80.3972 42.714 80.3202 42.714 80.2433 42.683V42.6054C80.3356 42.5744 80.4434 42.5588 80.4742 42.6985V42.714ZM81.1362 42.1399H81.013C80.8283 42.1865 80.7821 42.0934 80.8129 41.9227C80.8437 41.9227 80.8591 41.9227 80.8899 41.9227C80.9207 41.9693 80.9515 42.0158 81.0284 42.0003C81.0746 42.0003 81.09 42.0313 81.1362 42.0468V42.1554V42.1399Z" fill="#F0E74D"/>
<path d="M97.5937 40.5421L96.8701 40.1698L96.7161 39.8439L96.0387 39.1458L95.0996 37.6252L94.7455 37.2529L94.8378 36.8029L93.9449 35.4841L93.8833 34.7549L93.3752 34.0101L93.3291 33.0637L93.3752 32.831L94.4376 32.5827V32.7379L95.3305 32.6603L95.7462 32.4586L96.6853 32.5827L97.8554 31.7604L98.4559 31.9776C98.8715 31.7449 99.0871 31.4501 99.0871 31.0312C99.0871 30.9071 99.0871 30.7519 99.0255 30.5347L97.8092 30.4416C97.4089 30.2399 97.101 30.1468 96.8547 30.1003V30.1313H96.7469C96.7469 30.1313 96.7931 30.1003 96.7931 30.0847C96.7469 30.0847 96.6545 30.0382 96.593 30.0382C96.2081 30.0382 95.9309 30.0847 95.7462 30.2089C95.5768 30.3485 95.4075 30.395 95.2381 30.395C95.1304 30.395 94.9764 30.364 94.7455 30.3175H93.5292C93.3598 30.364 93.1135 30.4106 92.744 30.4416L92.5131 30.1158L92.3283 29.9141C92.3283 29.9141 92.3899 29.6813 92.4515 29.4486L92.3899 28.8435L92.4207 28.0212L92.0974 27.7419L92.2667 27.4471L91.5585 26.5472L91.497 25.8956L91.1736 24.5302L90.5732 23.6303L90.3577 22.6063C90.3577 22.358 90.2807 22.0943 90.1575 21.8616H90.0959V21.7529C90.0036 21.5512 89.8958 21.3495 89.7418 21.1634C89.6649 20.9927 89.5571 20.8375 89.4339 20.6669L89.3261 19.5808L88.2023 18.9757L87.3247 18.0758L86.5241 18.7274C86.1084 18.7585 85.5696 19.1619 84.8922 19.9687L85.0769 20.5738L84.8768 20.7444C84.8768 20.9617 84.5073 21.4426 83.7991 22.1874H83.5219L83.4911 23.2269L83.1678 23.3666H82.9523L82.1517 24.8405L81.8592 24.8871L81.6436 25.2439L81.0586 25.3836C81.0124 26.0973 80.7045 26.6558 80.1195 27.0592C80.0117 27.2609 79.9501 27.4781 79.9501 27.7264V27.9591C79.7192 28.0367 79.5652 28.1143 79.4882 28.1763L78.6107 28.6263L78.5029 29.4021C78.0872 29.6038 77.8101 29.9141 77.6561 30.395L77.2404 30.6123L75.6547 30.4881L75.6239 31.2639L74.7463 31.9621C74.8387 32.35 75.239 32.8775 75.4853 33.2344C75.4084 33.6223 75.1466 33.886 74.7001 34.0722C74.7001 34.4601 74.5308 34.7859 74.2229 35.0031L73.9304 35.2514L72.6833 35.5772V36.3995L72.5447 36.6323L72.6063 37.2374L72.2368 38.3234C72.7295 38.6493 73.2375 38.7734 73.7456 38.6958C73.915 38.6958 74.1305 38.6182 74.3922 38.5406L75.8394 37.4546L76.5169 36.0892L78.2104 33.9791L78.4259 33.7154H78.4567L79.1803 33.917L79.5806 34.367L80.6583 33.8705H80.8739C81.1048 33.9791 81.4897 34.0257 82.0131 34.0257L82.5366 34.2429L83.1986 33.8705H83.3526L84.2917 33.9946L85.1693 33.5447H85.4926C85.6312 33.5757 85.8467 33.5912 86.1546 33.5912C86.4163 33.5912 86.6319 33.5912 86.755 33.5447L86.9552 33.9946L87.6172 33.5757L87.8174 33.7929L88.7719 33.2654L89.6187 33.3895L90.1267 34.0877L90.2653 35.2514L90.6194 35.7013L91.42 37.6252L91.9434 38.1217L91.9896 38.7734L92.3129 39.0682V39.394L93.0057 40.1698L93.5138 41.1162L93.9295 41.3334L94.3914 42.1557H95.038L95.5614 42.5591H96.0079L97.0548 43.0712L97.5475 43.3039C97.5475 43.3039 97.6553 43.2573 97.7015 43.2418C98.4712 42.9626 98.8715 42.5126 98.9177 41.8765L97.84 41.2248L97.5783 40.5577L97.5937 40.5421ZM75.6855 32.7379C75.6855 32.7379 75.6855 32.5982 75.6855 32.5207C75.7163 32.5207 75.7317 32.5207 75.7625 32.5207C75.7625 32.6138 75.8086 32.7068 75.6701 32.7379H75.6855ZM79.0879 29.7744C79.0879 29.7744 78.9802 29.8365 78.934 29.8675H78.9032C78.9032 29.7899 78.8724 29.7279 78.857 29.6503H78.934C78.934 29.6503 79.0726 29.6503 79.0726 29.7589L79.0879 29.7744ZM80.7815 33.4361C80.7045 33.4361 80.6429 33.4361 80.5505 33.4361V33.3119C80.6275 33.3119 80.6891 33.3119 80.7815 33.3119V33.405V33.4361ZM87.3863 20.1704C87.4633 20.2324 87.3863 20.2324 87.3401 20.2479C87.3401 20.2169 87.3709 20.2014 87.3863 20.1704ZM87.2323 21.2875C87.2323 21.2875 87.1861 21.334 87.1861 21.3651C87.1092 21.2875 87.1861 21.303 87.2323 21.2875ZM86.2008 20.4807C86.2008 20.4807 86.2624 20.5738 86.3086 20.6203C86.3086 20.6513 86.3086 20.6669 86.3086 20.6824L86.0776 20.9151C86.0776 20.9151 85.9699 20.9151 85.9391 20.9151C85.8929 20.8841 85.8313 20.8531 85.7851 20.8065C85.7543 20.4652 85.7851 20.4341 86.2008 20.4807ZM85.7851 24.2509C85.7851 24.1734 85.7851 24.1113 85.7543 24.0182C85.9391 24.0647 85.8775 24.1578 85.7851 24.2509ZM81.5667 31.8069C81.5667 31.8069 81.4281 31.8069 81.3511 31.838V31.7449C81.3511 31.7449 81.4897 31.7449 81.5667 31.7449V31.7914V31.8069ZM81.6898 33.5447C81.6898 33.5447 81.6129 33.5136 81.6129 33.4981C81.6129 33.4361 81.659 33.4361 81.7052 33.4361C81.7052 33.4826 81.7052 33.4981 81.7052 33.5447H81.6898ZM82.1209 32.7379H82.0593C82.0593 32.6603 82.0593 32.5982 82.0593 32.5051H82.1671C82.1671 32.5827 82.1671 32.6448 82.1363 32.7379H82.1209ZM89.0952 30.7209C88.9874 30.8915 88.7257 31.0622 88.2946 31.2329L87.3709 30.7364L85.9237 30.8915C85.7081 30.8605 85.3848 30.845 84.9383 30.845C84.5842 30.845 84.3379 30.845 84.1686 30.8915L83.9992 30.845C83.7683 30.7364 83.5527 30.6898 83.3526 30.6898C83.1986 30.6898 83.0293 30.7364 82.8599 30.814H82.706C82.3826 30.814 81.967 30.7364 81.4743 30.5812H81.1202L81.659 30.0537L81.967 29.2314C82.6598 28.8745 83.0755 28.2849 83.2294 27.4626L83.9684 27.1368C83.9684 27.1368 83.9222 27.0282 84.03 26.9972C84.03 27.0437 84.03 27.0747 84.03 27.1213L84.184 27.0592L84.3687 26.33L85.2001 25.5853L85.5388 24.8871L86.5395 23.6458L86.7089 23.351L86.832 23.5217L87.0322 23.5993L87.3863 24.1268L87.4787 25.6008H87.7558L87.8328 25.7714L87.9405 26.4696L88.4024 27.1833L88.5564 28.8745L88.8489 29.0297C88.8489 29.4176 88.9413 29.6968 89.1568 29.8986L88.6487 30.302L89.0644 30.7209H89.0952ZM89.4801 22.1719H89.6187C89.6187 22.2494 89.5725 22.296 89.4955 22.296C89.4955 22.2494 89.4955 22.2184 89.4955 22.1719H89.4801ZM89.6033 27.3385C89.6033 27.3385 89.6495 27.1989 89.6495 27.1213C89.6956 27.1989 89.7726 27.3075 89.6033 27.3385ZM90.2961 24.0027C90.1883 24.0027 90.0805 24.0027 90.1113 23.863C90.1113 23.7855 90.2191 23.7855 90.2961 23.7855V24.0182V24.0027ZM91.1582 32.4431C91.0659 32.4121 91.0813 32.3345 91.0813 32.2724C91.1736 32.2724 91.2044 32.319 91.1736 32.4121C91.1736 32.4121 91.1736 32.4431 91.1429 32.4431H91.1582ZM91.3892 32.1173C91.3892 32.1173 91.3584 32.1173 91.343 32.0862C91.343 32.0862 91.3738 32.0552 91.3892 32.0552C91.4046 32.0552 91.42 32.0552 91.4354 32.0862C91.4354 32.0862 91.4046 32.1173 91.3892 32.1173ZM93.2521 39.1458C93.2521 39.1458 93.2983 39.0837 93.2983 39.0527C93.2983 39.0837 93.3445 39.0992 93.3445 39.1458H93.2367H93.2521ZM95.8386 40.2939C95.7308 40.2473 95.7308 40.1543 95.7308 40.0612C95.9002 40.0612 95.854 40.1853 95.8386 40.2939Z" fill="#F0E74D"/>
<path d="M119.379 25.5384V24.9333L117.87 24.0334L117.362 23.2421H116.67L116.223 22.9163L115.915 22.1095L115.099 22.2646C114.622 21.9078 114.129 21.7371 113.652 21.7371L113.452 21.4423L112.559 21.3647L111.651 20.7906H110.788L110.634 20.5424H109.403L108.34 20.2631L107.771 20.4183L107.17 19.9683L104.938 19.6425L103.722 19.5649H102.09C101.828 19.4098 101.582 19.3322 101.32 19.3322H100.827L99.9651 19.5649L100.088 19.4253L99.8112 19.3787L99.6418 19.3322H99.3185C98.795 19.4718 98.287 19.596 97.7943 19.7201C97.2863 19.8597 96.9937 20.139 96.8706 20.62L96.4087 21.132C96.4087 21.7526 96.5473 22.3112 96.8552 22.7766L97.5634 23.8162L98.6873 23.2576H98.7181L99.5494 23.1335L100.288 22.7146H101.274V22.5439L101.766 22.7146L102.367 22.4973L102.49 22.5904L103.368 22.3732L104.137 22.6215L104.876 22.5284L105.846 22.668C106.062 22.8077 106.262 22.8852 106.447 22.9163H106.493C106.631 22.9628 106.739 22.9783 106.878 22.9783C106.924 22.9783 107.001 22.9783 107.078 22.9318H107.247L107.802 23.2576H108.448L109.049 23.63L109.988 23.5679L111.112 24.2816L111.774 23.8782C112.343 24.111 112.959 24.4057 113.637 24.8247L115.13 25.4143L115.884 26.0659L116.208 26.1435L116.531 26.5158L116.716 27.0434L116.67 27.3692L116.377 27.5709L116.331 27.7881C116.023 27.8967 115.838 28.0208 115.746 28.145C115.715 28.0364 115.669 27.9898 115.592 27.9898C115.515 27.9898 115.407 28.0364 115.269 28.145L114.884 28.8587C114.73 28.8587 114.576 28.8587 114.468 28.8121L114.175 29.1845L113.59 29.4172L113.544 29.6344H112.651C112.205 29.9603 111.712 30.1309 111.173 30.1309H110.881L110.835 30.2085H110.511L109.849 30.6274L109.31 30.705C108.848 30.8912 108.479 31.0464 108.171 31.1705V31.2791H108.079V31.2325C107.94 31.2791 107.848 31.3256 107.755 31.3722C107.601 31.3256 107.417 31.2015 107.232 31.0153L106.647 31.5118C106.139 31.5428 105.677 31.698 105.292 32.0083H104.461V32.1169C104.461 32.1169 104.353 32.1169 104.307 32.1169L104.199 32.179L104.153 31.8066L104.291 31.4342L104.199 30.643L104.538 30.0379L104.338 29.4483L104.953 29.0293L104.984 28.0053L105.569 27.8347C105.4 27.633 105.261 27.4157 105.184 27.2296L105.154 27.1985C105.061 26.9813 105.015 26.7796 105.015 26.5624V26.3607C105.431 25.7246 105.615 25.2281 105.631 24.8712C105.662 23.9868 105.077 23.5524 103.906 23.5524H103.614L102.721 23.5989C102.398 23.7851 102.167 24.0644 102.044 24.4213L102.09 24.5454L101.982 24.623L101.443 25.5849L101.397 27.8036L101.258 28.4708L101.351 30.0379L101.104 30.2706L101.058 30.643C101.058 30.643 101.058 30.705 101.058 30.736C101.058 30.7826 101.058 30.7981 101.058 30.8447H101.027L100.873 32.0083L100.627 32.5203V32.9392L97.5634 33.1409L98.9028 35.1114C99.2415 35.189 99.7958 35.2666 100.535 35.3286L100.489 35.6544L100.596 36.1509L100.181 36.6009L100.72 37.6404L100.673 39.192L101.151 40.8831L102.198 42.1554C102.198 42.1554 102.198 42.1244 102.198 42.1089C102.151 41.783 102.382 41.9227 102.521 41.9072C102.659 42.0778 102.521 42.233 102.459 42.3726L103.537 42.0313C104.553 41.7055 105.077 41.2245 105.077 40.6039C105.107 39.9367 104.83 39.5798 104.261 39.4868L104.107 39.1299L104.137 38.1835L103.845 36.8336L104.153 35.8096L103.737 35.0804L104.014 35.0028L104.399 34.7701L104.923 34.6304L105.215 34.4753H105.461C105.692 34.4753 105.954 34.5218 106.185 34.6304L107.063 33.9788C107.524 33.9322 107.863 33.9012 108.048 33.9012L108.987 33.6995C108.987 33.6995 109.018 33.6529 109.033 33.6529H109.141V33.684L109.834 33.5443L110.342 33.1254H111.281L111.743 32.7996C111.958 32.722 112.128 32.6289 112.236 32.5203L112.451 32.4738L112.898 32.179H113.714L114.299 31.8842C114.76 31.8532 115.192 31.6204 115.623 31.155C116.469 30.9533 117.07 30.6895 117.409 30.3326C117.701 30.3016 117.917 30.1154 118.071 29.7586L118.209 29.712C118.532 29.5724 118.81 29.4793 119.025 29.4172V28.8897L119.795 28.2225L120.226 26.9503L119.487 25.6315L119.379 25.5384ZM97.9791 22.668C97.9791 22.668 97.9791 22.7301 97.9791 22.7766H97.9329H97.8867C97.8867 22.7146 97.8867 22.637 97.8867 22.5439C97.9791 22.5439 98.0099 22.606 98.0099 22.6835L97.9791 22.668ZM97.0707 22.0784C97.0707 22.0784 97.1477 22.0784 97.1939 22.0784C97.2555 22.0784 97.3016 22.1095 97.317 22.2181C97.2555 22.2801 97.1785 22.3267 97.0861 22.3267V22.0939L97.0707 22.0784ZM100.011 19.658C100.011 19.658 99.9651 19.627 99.9343 19.6115C99.9651 19.6115 99.9805 19.5804 100.011 19.5649V19.6735V19.658ZM100.134 20.7131V20.4803C100.134 20.4803 100.242 20.5269 100.273 20.5889C100.242 20.651 100.211 20.6976 100.134 20.7131ZM101.027 20.9458C101.027 20.9458 100.889 20.9458 100.812 20.9148V20.8372C100.812 20.8372 100.95 20.8372 101.043 20.8062C101.043 20.8527 101.043 20.8993 101.043 20.9458H101.027ZM108.371 21.1785H108.156L108.202 20.9768H108.34L108.387 21.1785H108.371ZM111.158 21.8922H111.112C111.112 21.8922 111.112 21.8147 111.142 21.7992C111.204 21.7992 111.204 21.8457 111.204 21.8767H111.158V21.8922ZM111.312 22.9318H111.204C111.204 22.8542 111.204 22.7921 111.204 22.699H111.296V22.9318H111.312ZM112.667 23.3817C112.667 23.3817 112.62 23.3507 112.59 23.3352C112.62 23.3352 112.636 23.3041 112.667 23.2886V23.3972V23.3817ZM104.753 24.1885H104.861C104.861 24.2661 104.861 24.3282 104.861 24.4213H104.769V24.1885H104.753ZM98.949 34.0408H98.9028C98.9028 34.0408 98.9028 33.9012 98.872 33.8391C98.9336 33.8391 99.0106 33.8391 99.0876 33.8391C99.0876 33.9477 99.0106 33.9788 98.949 34.0563V34.0408ZM101.104 39.4557H101.027C101.027 39.3781 101.027 39.3006 101.027 39.223H101.151C101.151 39.3006 101.151 39.3626 101.12 39.4557H101.104ZM101.043 36.9422C101.043 36.9422 100.95 36.9422 100.904 36.9422C100.904 36.8957 100.904 36.8802 100.904 36.8336C100.997 36.8336 101.104 36.8026 101.135 36.9577H101.043V36.9422ZM101.535 36.1199C101.535 36.1199 101.505 36.0889 101.489 36.0734C101.489 36.0734 101.52 36.0423 101.535 36.0268C101.535 36.0268 101.535 36.0578 101.566 36.0734C101.566 36.0734 101.535 36.1199 101.52 36.1199H101.535ZM101.766 37.5939C101.766 37.5939 101.766 37.5939 101.736 37.5628L101.766 37.5318C101.766 37.5318 101.797 37.5628 101.813 37.5628C101.813 37.5628 101.782 37.5939 101.766 37.5939ZM102.151 27.7571C102.151 27.7571 102.09 27.7571 102.044 27.8036C102.013 27.8036 101.997 27.8036 101.951 27.7726C101.951 27.633 101.828 27.633 101.72 27.6485C101.72 27.6019 101.72 27.5709 101.72 27.5243C101.843 27.5243 101.951 27.5243 102.044 27.5243C102.09 27.5243 102.121 27.5243 102.167 27.5243C102.167 27.6019 102.167 27.664 102.167 27.7571H102.151ZM103.891 38.2455C103.891 38.2455 103.953 38.2765 103.953 38.2921C103.953 38.3231 103.953 38.3541 103.922 38.3852C103.891 38.3852 103.876 38.3541 103.86 38.3386C103.829 38.2921 103.86 38.261 103.891 38.261V38.2455ZM103.722 32.9392V33.0478C103.722 33.0478 103.629 33.0013 103.614 32.9392C103.66 32.9392 103.676 32.9392 103.722 32.9392ZM103.522 39.1144C103.522 39.1144 103.552 39.1764 103.522 39.223C103.475 39.223 103.445 39.223 103.383 39.223C103.429 39.192 103.475 39.1609 103.522 39.1299V39.1144ZM103.06 30.1309C103.06 30.1309 103.06 30.224 103.06 30.2706C102.967 30.2706 102.937 30.224 102.937 30.1465C102.983 30.1465 103.013 30.1465 103.044 30.1465L103.06 30.1309ZM102.952 39.9057C102.952 39.9057 103.121 39.9367 103.137 39.8591C103.183 39.7195 103.044 39.704 102.952 39.6729C102.906 39.5643 102.921 39.4402 102.952 39.3471C102.983 39.3471 103.013 39.3471 103.029 39.3006C103.029 39.254 102.983 39.2385 102.952 39.223C102.983 39.1764 102.998 39.1144 103.044 39.0833C103.214 38.9437 103.26 38.9747 103.291 39.223C103.337 39.3937 103.383 39.5488 103.522 39.6419C103.706 39.766 103.46 39.9832 103.629 40.1074C103.404 40.2108 103.173 40.1384 102.937 39.8902L102.952 39.9057ZM103.522 38.9747C103.522 38.9747 103.583 38.9747 103.629 38.9747C103.629 39.0368 103.583 39.0834 103.537 39.1144C103.537 39.0678 103.537 39.0213 103.537 38.9747H103.522ZM103.676 41.6124L103.645 41.5658C103.645 41.5658 103.676 41.5348 103.691 41.5193L103.722 41.5658C103.722 41.5658 103.691 41.5968 103.676 41.6124ZM103.737 39.3316C103.737 39.3316 103.737 39.4092 103.737 39.4402L103.614 39.3161C103.614 39.3161 103.691 39.3161 103.737 39.3161V39.3316ZM103.506 33.2495C103.506 33.2495 103.506 33.172 103.506 33.1254C103.568 33.1254 103.645 33.1254 103.706 33.1254C103.706 33.172 103.706 33.203 103.706 33.2495C103.645 33.2495 103.568 33.2495 103.491 33.2495H103.506ZM104.014 29.0914C104.014 29.0914 103.983 29.0604 103.983 29.0449L104.014 29.0138C104.014 29.0138 104.045 29.0449 104.06 29.0449C104.06 29.0449 104.03 29.0914 104.014 29.0914ZM109.403 30.8447C109.403 30.8447 109.449 30.8757 109.48 30.8912C109.403 30.9533 109.403 30.8912 109.403 30.8447ZM109.649 31.5739L109.68 31.5428V31.5894H109.649V31.5739ZM112.205 30.3637H112.112C112.112 30.3637 112.112 30.224 112.112 30.1309C112.251 30.162 112.251 30.2706 112.22 30.3637H112.205ZM111.189 31.8687C111.312 31.8066 111.235 31.7756 111.189 31.729C111.25 31.5894 111.25 31.4498 111.235 31.3101C111.327 31.3101 111.435 31.2636 111.435 31.4187C111.435 31.5273 111.435 31.6359 111.435 31.7445C111.404 31.8842 111.389 32.0704 111.204 31.8687H111.189ZM111.327 31.0464C111.327 31.0464 111.327 30.9067 111.327 30.8291C111.466 30.8602 111.45 30.9533 111.45 31.0619C111.404 31.0619 111.373 31.0619 111.343 31.0619L111.327 31.0464ZM111.651 30.7205C111.543 30.7516 111.435 30.7671 111.327 30.7205C111.327 30.674 111.327 30.643 111.327 30.5964C111.389 30.5964 111.42 30.5499 111.42 30.4878C111.497 30.5343 111.574 30.5654 111.651 30.6119V30.7205ZM111.697 30.193C111.789 30.193 111.866 30.2395 111.866 30.3637C111.712 30.4102 111.635 30.3637 111.697 30.193ZM112.02 32.0859V31.9773C112.097 32.0238 112.159 32.0549 112.02 32.0859ZM112.02 31.8842C111.974 31.7445 111.881 31.667 111.728 31.6204C111.758 31.5894 111.774 31.5739 111.789 31.5428C111.958 31.4963 112.112 31.5118 112.236 31.6515C112.277 31.7963 112.2 31.8738 112.005 31.8842H112.02ZM113.144 32.1014H112.928C112.959 31.9618 113.052 31.9773 113.144 31.9928V32.1014ZM115.145 30.0223C115.145 30.0223 115.068 29.9758 115.053 29.9292C115.053 29.9292 115.145 29.9292 115.161 29.9758C115.161 29.9758 115.161 30.0223 115.13 30.0223H115.145ZM117.439 25.1039C117.362 25.1039 117.301 25.1039 117.208 25.1039V25.0108C117.208 25.0108 117.27 24.9333 117.316 24.8867H117.439V25.1195V25.1039ZM118.717 27.2606C118.717 27.2606 118.686 27.2296 118.671 27.2296C118.702 27.2296 118.717 27.183 118.748 27.183C118.748 27.183 118.779 27.214 118.794 27.2296C118.763 27.2296 118.748 27.2606 118.717 27.2606Z" fill="#F0E74D"/>
<path d="M99.1798 22.7304C98.3484 23.32 97.9789 24.4991 98.333 25.4611C98.4562 25.8179 98.6717 26.1283 98.8257 26.4696C98.9797 26.8109 99.072 27.1988 98.9489 27.5557C98.7641 28.0677 98.1637 28.3314 97.6402 28.2228C97.1168 28.1142 96.7011 27.6798 96.5009 27.1833C96.2238 26.5006 96.3162 25.6628 96.7319 25.0577C96.9628 24.7319 97.2861 24.4681 97.4709 24.0957C97.6556 23.7234 97.6248 23.2113 97.2707 23.0252L99.1952 22.7304H99.1798Z" fill="#F0E74D"/>
<path d="M96.6858 41.7523C96.9783 42.2022 97.1323 42.7452 97.1015 43.2883C97.1015 43.5831 97.0245 43.8779 97.0245 44.1882C97.0245 44.4985 97.0861 44.8088 97.2862 45.026C97.4864 45.2432 97.8713 45.3053 98.0868 45.1036C98.3332 44.8709 98.2716 44.4519 98.1176 44.1416C97.8559 43.5831 97.2708 42.0936 96.7628 41.7523H96.6704H96.6858Z" fill="#F0E74D"/>
<path d="M71.3752 27.8348C71.1134 28.9674 71.1904 30.1621 71.5753 31.2482C71.6985 31.5895 71.837 31.9153 71.8678 32.2722C71.8986 32.629 71.7909 33.0169 71.4829 33.2031C71.098 33.4514 70.5592 33.2341 70.2975 32.8618C70.0357 32.4894 69.9895 32.0084 69.9742 31.543C69.9434 30.1466 70.1743 28.7347 70.667 27.4314L71.3752 27.8348Z" fill="#F0E74D"/>
<path d="M52.6542 25.1663L52.9467 26.2213C53.0545 26.5782 53.1468 26.9506 53.2546 27.3074C53.3316 27.5712 53.4086 27.8505 53.3624 28.1142C53.3162 28.378 53.116 28.6417 52.8543 28.6728C52.5772 28.7038 52.3309 28.4556 52.2385 28.1763C52.1461 27.897 52.2077 27.6177 52.2385 27.3385C52.3617 26.5937 52.4848 25.849 52.608 25.1197L52.6388 25.1818L52.6542 25.1663Z" fill="#F0E74D"/>
<path d="M69.6966 37.082C69.866 37.0665 70.0507 37.082 70.2201 37.0044C70.4048 36.9268 70.5742 36.7717 70.7435 36.6475C71.1438 36.6786 71.1284 36.632 71.3286 36.4303C71.3902 36.2907 71.4671 36.0424 71.4363 35.8718C71.0976 35.5149 71.036 35.5925 70.7127 35.2511C70.374 34.9253 70.2509 35.127 69.712 35.2822C69.3733 35.608 69.3733 35.8407 69.1116 36.1045C69.2347 36.6941 69.2347 36.6941 69.712 37.082H69.6966Z" fill="#F0E74D"/>
<path d="M110.065 36.4926C109.849 36.5702 109.587 36.8185 109.587 36.9891C109.587 37.1443 109.895 37.3149 110.095 37.5166C110.373 37.3149 110.65 37.2063 110.773 37.0202C110.942 36.7409 110.465 36.353 110.065 36.4926Z" fill="#F0E74D"/>
<path d="M49.9592 33.2963H49.6975C49.4358 33.498 49.1895 33.4825 49.1895 33.7928C49.1895 34.1186 49.3896 34.4445 49.6975 34.5375C50.0208 34.6306 50.4057 34.3979 50.4827 34.0566C50.5597 33.7152 50.298 33.3429 49.9592 33.2963Z" fill="#F0E74D"/>
<path d="M90.0193 46.5619C90.0963 46.2206 89.8346 45.8482 89.4959 45.8017H89.2341C88.9724 46.0034 88.7261 45.9878 88.7261 46.2981C88.7261 46.624 88.9262 46.9498 89.2341 47.0429C89.5574 47.136 89.9423 46.9033 90.0193 46.5619Z" fill="#F0E74D"/>
<path d="M51.3139 32.4585H51.1908C51.1908 32.4585 51.0984 32.5516 51.0984 32.6136C51.0984 32.6912 51.16 32.7688 51.237 32.7688C51.3139 32.7688 51.3909 32.7222 51.4217 32.6602C51.4217 32.6291 51.4371 32.5981 51.4217 32.5671C51.4217 32.5671 51.3909 32.5516 51.3755 32.536C51.3139 32.5205 51.3755 32.474 51.3139 32.4585Z" fill="#F0E74D"/>
<path d="M87.8018 45.9257L87.6325 45.9567C87.6325 45.9567 87.4939 46.0653 87.4939 46.1429C87.4939 46.2515 87.5863 46.3446 87.694 46.3601C87.8018 46.3601 87.9096 46.2981 87.9558 46.205C87.9712 46.1584 87.9866 46.1119 87.9558 46.0809C87.9404 46.0653 87.9096 46.0498 87.8942 46.0498C87.8172 46.0188 87.8942 45.9723 87.8018 45.9412V45.9257Z" fill="#F0E74D"/>
<path d="M95.362 23.1957C95.362 23.1957 95.362 23.0406 95.3312 22.994C95.3004 22.9475 95.2235 22.9165 95.1927 22.901C94.9155 22.994 94.623 23.0251 94.4075 23.1802C94.2535 23.2888 94.2073 23.5526 94.1458 23.7698C94.1458 23.8164 94.2997 23.9715 94.3459 23.956C94.7462 23.8009 95.1311 23.5836 95.3774 23.1957H95.362Z" fill="#F0E74D"/>
<path d="M119.794 41.0073L123.228 21.4889C123.258 21.2717 123.459 21.1165 123.674 21.1165H128.046C128.324 21.1165 128.539 21.3648 128.493 21.644L127.292 28.5019C127.215 28.9363 127.723 29.2156 128.046 28.9053L136.16 21.2251C136.237 21.1475 136.36 21.101 136.468 21.101H141.98C142.395 21.101 142.596 21.613 142.288 21.8923L134.405 29.2311C134.266 29.3707 134.22 29.5724 134.297 29.7586L139.409 40.8832C139.547 41.178 139.332 41.5348 138.993 41.5348H133.974C133.789 41.5348 133.635 41.4262 133.558 41.2556L130.233 33.5754C130.11 33.2961 129.755 33.2186 129.524 33.4047L126.014 36.3372C125.937 36.3992 125.876 36.5078 125.86 36.6164L125.075 41.1625C125.044 41.3797 124.844 41.5348 124.629 41.5348H120.241C119.964 41.5348 119.748 41.2866 119.794 41.0073Z" fill="#F0E74D"/>
<path d="M147.584 41.8918C145.598 41.8918 143.904 41.597 142.488 40.9919C141.071 40.3868 140.009 39.4869 139.27 38.2922C138.531 37.0976 138.162 35.6081 138.162 33.8238C138.162 33.3739 138.192 32.9084 138.239 32.474C138.285 32.024 138.346 31.5741 138.423 31.1241C138.793 28.9054 139.486 27.028 140.502 25.492C141.518 23.956 142.857 22.7923 144.52 21.9855C146.183 21.1787 148.169 20.7753 150.494 20.7753C152.495 20.7753 154.204 21.0856 155.62 21.6907C157.037 22.2958 158.099 23.1957 158.838 24.4059C159.577 25.6161 159.947 27.1211 159.947 28.9209C159.947 29.3398 159.931 29.7588 159.885 30.1932C159.839 30.6276 159.793 31.0621 159.716 31.4965C159.346 33.7307 158.638 35.6391 157.607 37.1751C156.575 38.7112 155.22 39.8903 153.542 40.6971C151.864 41.5039 149.878 41.9073 147.584 41.9073V41.8918ZM147.846 37.7337C148.739 37.7337 149.524 37.5941 150.232 37.3303C150.94 37.0665 151.556 36.6786 152.079 36.1821C152.603 35.6856 153.034 35.0806 153.373 34.3668C153.711 33.6531 153.973 32.8463 154.127 31.9309C154.204 31.481 154.266 31.0931 154.312 30.7673C154.358 30.4569 154.404 30.1932 154.435 29.976C154.466 29.7743 154.481 29.5881 154.497 29.4484C154.497 29.3088 154.512 29.1692 154.512 29.0295C154.512 28.1762 154.343 27.4314 154.019 26.8108C153.696 26.1902 153.219 25.7092 152.572 25.3834C151.925 25.0576 151.14 24.8869 150.201 24.8869C149.339 24.8869 148.554 25.011 147.846 25.2748C147.137 25.5386 146.522 25.9109 145.998 26.4229C145.475 26.9349 145.044 27.54 144.705 28.2538C144.366 28.9675 144.104 29.7743 143.95 30.6586C143.873 31.1396 143.812 31.5275 143.766 31.8533C143.72 32.1636 143.689 32.4274 143.658 32.6446C143.643 32.8463 143.627 33.0325 143.612 33.1722C143.612 33.3118 143.612 33.4514 143.612 33.5911C143.612 34.4444 143.766 35.1736 144.089 35.7943C144.397 36.4149 144.874 36.8803 145.505 37.2217C146.137 37.563 146.922 37.7337 147.861 37.7337H147.846Z" fill="#F0E74D"/>
<path d="M158.854 41.0074L162.272 21.489C162.302 21.2718 162.503 21.1166 162.718 21.1166H167.091C167.368 21.1166 167.583 21.3649 167.537 21.6441L164.92 36.6321C164.874 36.9113 165.089 37.1596 165.366 37.1596H174.45C174.727 37.1596 174.942 37.4078 174.896 37.6871L174.296 41.1471C174.265 41.3643 174.065 41.5194 173.849 41.5194H159.331C159.054 41.5194 158.838 41.2712 158.885 40.9919L158.854 41.0074Z" fill="#F0E74D"/>
<path d="M183.149 41.8918C181.162 41.8918 179.469 41.597 178.053 40.9919C176.636 40.3868 175.574 39.4869 174.835 38.2922C174.096 37.0976 173.726 35.6081 173.726 33.8238C173.726 33.3739 173.757 32.9084 173.803 32.474C173.849 32.024 173.911 31.5741 173.988 31.1241C174.358 28.9054 175.05 27.028 176.066 25.492C177.083 23.956 178.422 22.7923 180.085 21.9855C181.748 21.1787 183.734 20.7753 186.058 20.7753C188.06 20.7753 189.769 21.0856 191.185 21.6907C192.602 22.2958 193.664 23.1957 194.403 24.4059C195.142 25.6161 195.511 27.1211 195.511 28.9209C195.511 29.3398 195.496 29.7588 195.45 30.1932C195.404 30.6276 195.357 31.0621 195.28 31.4965C194.911 33.7307 194.203 35.6391 193.171 37.1751C192.14 38.7112 190.785 39.8903 189.107 40.6971C187.429 41.5039 185.443 41.9073 183.149 41.9073V41.8918ZM183.41 37.7337C184.303 37.7337 185.088 37.5941 185.797 37.3303C186.505 37.0665 187.121 36.6786 187.644 36.1821C188.168 35.6856 188.599 35.0806 188.937 34.3668C189.276 33.6531 189.538 32.8463 189.692 31.9309C189.769 31.481 189.83 31.0931 189.877 30.7673C189.923 30.4569 189.969 30.1932 190 29.976C190.03 29.7743 190.046 29.5881 190.061 29.4484C190.061 29.3088 190.077 29.1692 190.077 29.0295C190.077 28.1762 189.907 27.4314 189.584 26.8108C189.261 26.1902 188.783 25.7092 188.137 25.3834C187.49 25.0576 186.705 24.8869 185.766 24.8869C184.904 24.8869 184.118 25.011 183.41 25.2748C182.702 25.5386 182.086 25.9109 181.563 26.4229C181.039 26.9349 180.608 27.54 180.27 28.2538C179.931 28.9675 179.669 29.7743 179.515 30.6586C179.438 31.1396 179.377 31.5275 179.33 31.8533C179.284 32.1636 179.253 32.4274 179.223 32.6446C179.207 32.8463 179.192 33.0325 179.176 33.1722C179.176 33.3118 179.176 33.4514 179.176 33.5911C179.176 34.4444 179.33 35.1736 179.654 35.7943C179.962 36.4149 180.439 36.8803 181.07 37.2217C181.701 37.563 182.487 37.7337 183.426 37.7337H183.41Z" fill="#F0E74D"/>
<path d="M203.501 41.8918C200.745 41.8918 198.605 41.2401 197.097 39.9213C195.588 38.6025 194.818 36.6321 194.818 33.9789C194.818 33.1721 194.864 32.3808 194.972 31.6361C195.064 30.8758 195.218 30.1776 195.419 29.526C195.911 27.6176 196.696 26.0195 197.79 24.7162C198.883 23.4129 200.222 22.4354 201.823 21.7528C203.409 21.0701 205.195 20.7442 207.166 20.7442C208.49 20.7442 209.706 20.8684 210.83 21.1321C211.954 21.3959 212.924 21.7838 213.77 22.2958C214.602 22.8078 215.248 23.4595 215.726 24.2352C216.187 25.011 216.418 25.9264 216.418 26.9659C216.418 27.1832 216.418 27.4004 216.388 27.6176C216.372 27.8348 216.341 28.0675 216.295 28.3003H211.107C211.122 28.2072 211.138 28.1141 211.138 28.021V27.7727C211.138 27.3228 211.045 26.9039 210.861 26.547C210.676 26.1902 210.399 25.8954 210.029 25.6471C209.66 25.3989 209.244 25.2282 208.782 25.1041C208.32 24.98 207.797 24.9179 207.243 24.9179C206.334 24.9179 205.518 25.042 204.764 25.2903C204.009 25.5385 203.363 25.9109 202.809 26.3919C202.254 26.8728 201.808 27.4624 201.438 28.1451C201.069 28.8278 200.822 29.6191 200.684 30.5035C200.592 31 200.515 31.4189 200.468 31.7447C200.422 32.0705 200.376 32.3498 200.345 32.598C200.314 32.8463 200.284 33.0325 200.268 33.1876C200.253 33.3428 200.237 33.4979 200.237 33.6686C200.237 34.5685 200.407 35.3132 200.745 35.9183C201.084 36.5235 201.561 36.9734 202.208 37.2837C202.855 37.594 203.655 37.7492 204.61 37.7492C205.564 37.7492 206.396 37.594 207.196 37.2992C207.997 37.0044 208.659 36.5855 209.182 36.058C209.721 35.5305 210.029 34.9254 210.122 34.2272L210.152 34.072H205.241C204.964 34.072 204.748 33.8082 204.795 33.529L205.303 30.6896C205.349 30.4724 205.534 30.3173 205.749 30.3173H215.402C215.679 30.3173 215.895 30.5655 215.849 30.8448L214.063 41.1471C214.032 41.3643 213.832 41.5194 213.616 41.5194H211.338C211.107 41.5194 210.907 41.3332 210.891 41.1005L210.753 39.3473C210.106 39.9058 209.398 40.3713 208.659 40.7436C207.905 41.116 207.119 41.4108 206.288 41.597C205.457 41.7832 204.533 41.8763 203.532 41.8763L203.501 41.8918Z" fill="#F0E74D"/>
<path d="M219.282 41.0073L220.575 33.5909C220.591 33.4978 220.575 33.4047 220.545 33.3116L215.125 21.7526C214.987 21.4579 215.202 21.101 215.541 21.101H220.237C220.422 21.101 220.575 21.2096 220.652 21.3648L223.932 28.7656H224.086L229.875 21.2717C229.967 21.1631 230.09 21.101 230.229 21.101H234.986C235.371 21.101 235.571 21.5509 235.34 21.8457L225.979 33.3582C225.979 33.3582 225.902 33.4978 225.887 33.5599L224.563 41.1625C224.532 41.3797 224.332 41.5348 224.117 41.5348H219.744C219.467 41.5348 219.251 41.2866 219.298 41.0073H219.282Z" fill="#F0E74D"/>
</svg>
