<svg width="63" height="37" viewBox="0 0 63 37" fill="none" xmlns="http://www.w3.org/2000/svg">
<path d="M1.68673e-07 31.3368C1.68673e-07 22.7801 1.68673e-07 14.2233 0 5.66663C0.0339403 5.59294 0.0845684 5.5226 0.0994193 5.44508C0.723641 2.18704 3.24108 0.0113508 6.46649 0.00840537C18.0318 -0.00215505 29.5971 -0.00359415 41.1624 0.00887291C44.8335 0.0128302 47.5978 2.86558 47.6259 6.62666C47.6367 8.07361 47.6265 9.52071 47.6302 10.9677C47.6306 11.116 47.6609 11.2642 47.6773 11.4125C47.7339 11.4453 47.7904 11.478 47.8469 11.5108C47.9796 11.3232 48.0903 11.1132 48.2481 10.9512C50.7085 8.42558 53.1668 5.89777 55.6433 3.38867C56.9781 2.03627 58.572 1.62014 60.3266 2.34522C62.0248 3.04696 62.9717 4.42237 62.9794 6.29385C63.0125 14.4306 62.9981 22.5676 62.9886 30.7045C62.9873 31.8397 62.578 32.8358 61.7997 33.6526C60.0564 35.4823 57.4414 35.438 55.5554 33.5265C53.0939 31.0317 50.6521 28.5167 48.2005 26.0117C48.0502 25.8582 47.8883 25.7166 47.6279 25.4717C47.6279 27.1429 47.6473 28.6659 47.6188 30.188C47.6067 30.8326 47.5683 31.4947 47.414 32.1156C46.6821 35.061 44.1399 36.9965 41.0392 36.9976C29.5559 37.0018 18.0726 36.9993 6.58937 36.999C6.44586 36.999 6.30211 36.9998 6.15887 36.9923C4.27961 36.8938 2.73497 36.1075 1.50346 34.6516C0.690119 33.6901 0.286799 32.5433 1.68673e-07 31.3368ZM17.9041 18.4426C17.9041 20.6634 17.904 22.8842 17.9041 25.1049C17.9042 26.036 18.2344 26.7849 19.0759 27.2192C19.8773 27.6329 20.6479 27.4689 21.3253 26.9411C24.1925 24.7076 27.059 22.4726 29.8948 20.1978C31.0622 19.2613 31.0562 17.7344 29.8879 16.7987C27.0504 14.526 24.1824 12.2931 21.3194 10.0539C20.7767 9.62956 20.1592 9.44407 19.472 9.63852C18.4438 9.92945 17.9144 10.6933 17.907 11.9688C17.8946 14.1266 17.9036 16.2846 17.9041 18.4426Z" fill="#F0E74D"/>
</svg>
